<svg xmlns="http://www.w3.org/2000/svg" viewBox="0 0 500 500"><defs><style>.cls-1{fill:#ebebeb;}.cls-2{fill:#e0e0e0;}.cls-3{fill:#f5f5f5;}.cls-4{fill:#fff;}.cls-5{fill:#263238;}.cls-6{fill:#455a64;}.cls-7{opacity:0.3;}.cls-8{opacity:0.2;}.cls-9{fill:#ff725e;}.cls-10{fill:#fafafa;}.cls-11{fill:#ab162b;}.cls-12{fill:#ae7461;}.cls-13{opacity:0.6;}.cls-14{fill:#6f4439;}</style></defs><g id="Background_Complete" data-name="Background Complete"><rect class="cls-1" x="408.62" y="221.8" width="44.06" height="11.66"/><path class="cls-2" d="M434,245.73a1.66,1.66,0,0,1,0-.21l0-.6c0-.55,0-1.31,0-2.29,0-2,0-4.91-.07-8.55l.13.13L390,234.3l.22-.22h0v11.63l-.22-.22,31.39.1,9.27.07,2.51,0,.65,0H434s-.06,0-.2,0h-.63l-2.46,0-9.21.06L390,246h-.22v-.22c0-1.87,0-3.79,0-5.73v-5.9h0l.23-.23,44.05.09h.14v.14c0,3.68-.06,6.6-.08,8.63,0,1,0,1.72,0,2.26,0,.24,0,.43,0,.58S434.05,245.74,434,245.73Z"/><rect class="cls-1" x="134.7" y="391.4" width="44.06" height="11.66"/><path class="cls-2" d="M160.13,415.33s0-.08,0-.21,0-.36,0-.6c0-.55,0-1.32,0-2.3,0-2,0-4.9-.07-8.55l.13.14-44,.09c.1-.1-.23.22.22-.23h0v5.9c0,2,0,3.86,0,5.74l-.22-.22,31.4.1,9.27.06,2.5,0h.66l.23,0h-.2l-.63,0-2.46,0-9.22.07-31.55.1h-.21v-.22c0-1.88,0-3.79,0-5.74v-5.9h0c.45-.45.13-.12.23-.22l44.05.09h.14v.13c0,3.68-.06,6.6-.08,8.63,0,1,0,1.73,0,2.27,0,.23,0,.42,0,.57S160.14,415.33,160.13,415.33Z"/><rect class="cls-1" x="215.81" y="36.24" width="44.06" height="11.66"/><path class="cls-2" d="M241.23,60.17s0-.07,0-.21v-.6c0-.55,0-1.31,0-2.29,0-2,0-4.91-.07-8.55l.13.13-44,.09c.1-.1-.23.22.22-.22h0V60.17l-.22-.22,31.39.1,9.27.06,2.51,0,.65,0h.23s-.06,0-.2,0h-.63l-2.46,0-9.21.06-31.55.1H197v-.22c0-1.87,0-3.79,0-5.73v-5.9h0l.23-.23,44,.09h.14v.14c0,3.68-.06,6.6-.07,8.63,0,1,0,1.72,0,2.26,0,.24,0,.43,0,.58S241.24,60.18,241.23,60.17Z"/><rect class="cls-1" x="399.81" y="313.05" width="44.06" height="11.66"/><rect class="cls-1" x="114.4" y="113.62" width="44.06" height="11.66"/><path class="cls-2" d="M85.2,244.7s0-.08,0-.21l0-.6c0-.55,0-1.32,0-2.3,0-2,0-4.9-.07-8.55l.13.14-44.05.09c.1-.1-.23.22.22-.23h0V239c0,1.95,0,3.86,0,5.74l-.21-.22,31.39.1,9.27.06,2.5,0H85l.23,0H85l-.63,0-2.46,0-9.22.07-31.54.1h-.22v-.22c0-1.88,0-3.79,0-5.74v-5.9h0c.45-.45.13-.12.23-.22l44.05.09h.14V233c0,3.68-.06,6.6-.08,8.64,0,1,0,1.72,0,2.26,0,.23,0,.42,0,.57S85.21,244.7,85.2,244.7Z"/><path class="cls-2" d="M91.18,233a.57.57,0,0,1,0-.22c0-.17,0-.37,0-.62,0-.57,0-1.35,0-2.33,0-2.05,0-4.93-.09-8.48l.17.16-26.47.06c-.21.2.27-.27.22-.22h0v6c0,2,0,3.84,0,5.65l-.22-.21,18.94.1,5.52.06,1.48,0a3.47,3.47,0,0,1,.54,0,3,3,0,0,1-.49,0l-1.44,0-5.47.05-19.08.11h-.21V233c0-1.81,0-3.7,0-5.65v-6h0l.23-.23,26.47.07h.16v.16c0,3.59-.07,6.51-.09,8.57,0,1,0,1.74,0,2.3A7.16,7.16,0,0,1,91.18,233Z"/><rect class="cls-2" x="61.13" y="67.07" width="79.27" height="114.89"/><rect class="cls-3" x="57.16" y="67.07" width="79.27" height="114.89"/><rect class="cls-4" x="67.01" y="79.51" width="59.57" height="90.01"/><path class="cls-2" d="M126.58,169.52s0-.16,0-.44,0-.73,0-1.28c0-1.13,0-2.79,0-4.94,0-4.31,0-10.6,0-18.54,0-15.87-.06-38.34-.1-64.81l.2.2L67,79.73h0l.22-.22c0,33.95,0,65.26,0,90l-.17-.18,43.36.09,12,0,3.14,0c.72,0,1.09,0,1.09,0h-1l-3.11,0-11.94,0L67,169.69h-.17v-.17c0-24.75,0-56.06,0-90v-.22H67l59.56,0h.2v.2c0,26.52-.07,49-.1,64.94,0,7.92,0,14.19-.05,18.5,0,2.13,0,3.77,0,4.89,0,.55,0,1,0,1.26S126.58,169.52,126.58,169.52Z"/><path class="cls-2" d="M136.65,67.07a13.63,13.63,0,0,1-1.41,2.05c-.92,1.23-2.23,2.91-3.72,4.72s-2.89,3.41-3.92,4.55a13.92,13.92,0,0,1-1.74,1.78,14.34,14.34,0,0,1,1.51-2l3.82-4.63L135,68.93A14.27,14.27,0,0,1,136.65,67.07Z"/><path class="cls-4" d="M126.88,169.23a74.33,74.33,0,0,0,10.39,13"/><path class="cls-2" d="M137.27,182.22a12.35,12.35,0,0,1-1.81-1.65c-1.06-1.07-2.47-2.62-3.92-4.42a57.71,57.71,0,0,1-3.45-4.8,13.19,13.19,0,0,1-1.21-2.12,15.13,15.13,0,0,1,1.47,2c.87,1.23,2.1,2.91,3.53,4.7s2.8,3.36,3.8,4.48A15.12,15.12,0,0,1,137.27,182.22Z"/><path class="cls-4" d="M57.15,181.87l10.38-12.81"/><path class="cls-2" d="M67.53,169.06a77.22,77.22,0,0,1-5,6.54,80.87,80.87,0,0,1-5.36,6.27,77.54,77.54,0,0,1,5-6.54A77.41,77.41,0,0,1,67.53,169.06Z"/><path class="cls-2" d="M57.16,67.07a68.73,68.73,0,0,1,5,6,70.49,70.49,0,0,1,4.7,6.29,70.87,70.87,0,0,1-5-6A72.94,72.94,0,0,1,57.16,67.07Z"/><rect class="cls-2" x="88.08" y="97.78" width="19.95" height="56.63"/><rect class="cls-2" x="383.36" y="67.07" width="79.27" height="114.89"/><rect class="cls-3" x="379.39" y="67.07" width="79.27" height="114.89"/><rect class="cls-4" x="389.24" y="79.51" width="59.57" height="90.01"/><path class="cls-2" d="M448.81,169.52s0-.16,0-.44,0-.73,0-1.28c0-1.13,0-2.79,0-4.94,0-4.31,0-10.6-.06-18.54,0-15.87-.05-38.34-.09-64.81l.2.2-59.57,0h0l.21-.22c0,33.95,0,65.26,0,90l-.17-.18,43.35.09,12,0,3.15,0c.71,0,1.09,0,1.09,0h-1.06l-3.11,0-11.94,0-43.46.09h-.18v-.17c0-24.75,0-56.06,0-90v-.22h.22l59.57,0H449v.2c0,26.52-.07,49-.09,64.94,0,7.92-.05,14.19-.06,18.5,0,2.13,0,3.77,0,4.89,0,.55,0,1,0,1.26S448.81,169.52,448.81,169.52Z"/><path class="cls-2" d="M458.88,67.07a15.45,15.45,0,0,1-1.42,2.05c-.92,1.23-2.22,2.91-3.72,4.72s-2.88,3.41-3.91,4.55a13.51,13.51,0,0,1-1.75,1.78,15.44,15.44,0,0,1,1.51-2l3.82-4.63c1.45-1.75,2.75-3.34,3.81-4.63A13.82,13.82,0,0,1,458.88,67.07Z"/><path class="cls-4" d="M449.11,169.23a73.87,73.87,0,0,0,10.39,13"/><path class="cls-2" d="M459.5,182.22a11.23,11.23,0,0,1-1.81-1.65,57.78,57.78,0,0,1-7.37-9.22,11.47,11.47,0,0,1-1.21-2.12,15.78,15.78,0,0,1,1.46,2c.87,1.23,2.1,2.91,3.53,4.7s2.81,3.36,3.81,4.48A17.78,17.78,0,0,1,459.5,182.22Z"/><path class="cls-4" d="M379.38,181.87l10.38-12.81"/><path class="cls-2" d="M389.76,169.06a81.52,81.52,0,0,1-5,6.54,79.59,79.59,0,0,1-5.35,6.27,73.64,73.64,0,0,1,5-6.54A78.62,78.62,0,0,1,389.76,169.06Z"/><path class="cls-2" d="M379.39,67.07a70.87,70.87,0,0,1,5,6,72.94,72.94,0,0,1,4.7,6.29,68.73,68.73,0,0,1-5-6A70.49,70.49,0,0,1,379.39,67.07Z"/><rect class="cls-2" x="410.3" y="97.78" width="19.95" height="56.63"/></g><g id="Floor"><path class="cls-5" d="M469.32,461.18c0,.14-98.2.26-219.31.26s-219.33-.12-219.33-.26,98.18-.26,219.33-.26S469.32,461,469.32,461.18Z"/></g><g id="Plant"><path class="cls-6" d="M384.93,384.71a3.59,3.59,0,0,1-1.85-3.47,7.53,7.53,0,0,0,.26-2.39,5,5,0,0,0-1-1.7,6,6,0,0,1,0-6.71,5.25,5.25,0,0,1-2.51-3.76c-.26-1.36.76-3.95.76-3.95a5,5,0,0,1-1.73-3,6.26,6.26,0,0,1,1.26-4.68,5.59,5.59,0,0,1-1.24-7.79,7.06,7.06,0,0,1-1-7.75,5.68,5.68,0,0,1-1.24-7.31,9.17,9.17,0,0,1-2.22-7.89s-1.84-7.43-1.36-8.93c.21-.66-2.52,5.62-3.29,16.46s3.72,43.17,6.31,56.34,11.11,27.88,11.11,27.88L398,414.69s-11.23-19.36-12.59-27.1l0-2.35"/><g class="cls-7"><path d="M387.52,388.22c-.64-1.82-2.16-2.58-3.31-4.14A22.52,22.52,0,0,0,381,396.35,66.52,66.52,0,0,0,383.14,409l3.11-.95q.71-8.56,1.42-17.12A6.55,6.55,0,0,0,387.52,388.22Z"/></g><path class="cls-6" d="M441.29,348.42c.91-.19-8.05,24.34-9.87,38.13s-8.18,31-10.74,35.29-9.78.37-9.78.37l11.16-27.87.94-8.59s2.64-4.39,2.54-8.67c0,0,2.3-1.15,2.78-5.75,0,0,2.45-.59,3-5.56,0,0,1.75-4.16,1.73-6.75C433,359,437.91,349.13,441.29,348.42Z"/><g class="cls-7"><path d="M421.44,396.38a36,36,0,0,1-.26,9.44l4.34-2.37a10.54,10.54,0,0,1-2.95,6.39,31.89,31.89,0,0,1-5.58,4.5,136.38,136.38,0,0,1,4.16-18.83"/></g><path class="cls-6" d="M443.07,366c-.18.43-1.81,10.41-2.76,16.55-.83,5.31-2.13,17.19-6.75,25s-11.19,14.25-15.41,16.9c-6.56,4.12-12.1,4.06-12.1,4.06L419.91,409s5.5-2.87,4.8-5.32l.57-3.3a5.93,5.93,0,0,0,4.4-4.94,12,12,0,0,0,3.66-8.76s3.3-2.37,2.8-5.76c0,0,2.66-2.45,2.14-4.5,0,0,2.43-1.88,1.59-4.4Z"/><path class="cls-5" d="M443.07,366l-3.14,6V372a3.52,3.52,0,0,1,0,2.33,5.2,5.2,0,0,1-1.56,2.16l0-.1a2.88,2.88,0,0,1,0,1.24,4.67,4.67,0,0,1-.47,1.2,9,9,0,0,1-1.68,2.18l0-.1a5.35,5.35,0,0,1-.57,3.17,8.33,8.33,0,0,1-2.27,2.71l.06-.12a11.92,11.92,0,0,1-3.7,8.88l.05-.1a5.65,5.65,0,0,1-1.39,3.18,6.58,6.58,0,0,1-3.12,1.91l.12-.13c-.17,1-.37,2.15-.56,3.29v-.07a2.33,2.33,0,0,1-.39,1.87,7.25,7.25,0,0,1-1.27,1.44,17,17,0,0,1-3.22,2.21l.06-.05c-4.28,6-9,12.63-13.85,19.5l-.15-.29a14.27,14.27,0,0,0,1.68-.14,25.56,25.56,0,0,0,7.44-2.3,27.88,27.88,0,0,0,6.33-4.17,58.81,58.81,0,0,0,9.61-10.7,40.51,40.51,0,0,0,3.46-5.74,41.28,41.28,0,0,0,2.27-5.9,84.36,84.36,0,0,0,2.47-11.1c1-6.89,2-12.46,2.63-16.3.33-1.92.59-3.41.79-4.42.09-.51.17-.89.23-1.15a2.2,2.2,0,0,1,.11-.38s-.38,2.12-1,6-1.51,9.42-2.51,16.32a84.87,84.87,0,0,1-2.43,11.15,43.09,43.09,0,0,1-2.27,5.95,41.33,41.33,0,0,1-3.48,5.79,58.78,58.78,0,0,1-9.65,10.78,27.73,27.73,0,0,1-6.41,4.23,25.83,25.83,0,0,1-7.55,2.34,14.92,14.92,0,0,1-1.73.14h-.36l.21-.3c4.88-6.87,9.57-13.46,13.87-19.49l0,0,0,0a17.11,17.11,0,0,0,3.16-2.16,6.7,6.7,0,0,0,1.2-1.36,2,2,0,0,0,.36-1.6v-.07c.2-1.15.39-2.28.57-3.29l0-.1.1,0a6.27,6.27,0,0,0,3-1.8,5.35,5.35,0,0,0,1.33-3v-.05l.05,0a11.67,11.67,0,0,0,3.63-8.64v-.07l.06,0a8,8,0,0,0,2.2-2.6,5.05,5.05,0,0,0,.56-3v-.06l0,0a9.35,9.35,0,0,0,1.66-2.11,4.65,4.65,0,0,0,.45-1.15,2.58,2.58,0,0,0,0-1.14v-.06l.05,0a5.08,5.08,0,0,0,1.51-2.07,3.27,3.27,0,0,0,.06-2.22v0l0,0Z"/><path class="cls-6" d="M392.07,291.24s-5.89,9.42-6.28,25.13,3.14,80.84,3.14,80.84l4.51,13.39,7.85-2.36s-4.52-42.6-4.91-49.08-2-31.6-2.86-40.83S390.89,292.61,392.07,291.24Z"/><g class="cls-8"><path d="M392.07,291.24s-5.89,9.42-6.28,25.13,3.14,80.84,3.14,80.84l4.51,13.39,7.85-2.36s-4.52-42.6-4.91-49.08-2-31.6-2.86-40.83S390.89,292.61,392.07,291.24Z"/></g><path class="cls-6" d="M355.78,364.38s2.94,25.13,8,36.72c8.51,19.64,35.42,26,35.42,26l-14.24-18.62s-3.89,1.55-4.86-3.11c0,0-5.24-1.94-4.85-4.86a6.56,6.56,0,0,1-4.47-5.14,6,6,0,0,1-3.89-6.51s-3-.81-2.42-4.52a6.69,6.69,0,0,1-2.79-6.25s-2.16-1.55-2-5.26Z"/><path class="cls-5" d="M355.78,364.38l4,8.41v0a7.62,7.62,0,0,0,.33,2.67,5.34,5.34,0,0,0,1.63,2.5l.05,0v.06a6.34,6.34,0,0,0,.44,3.29,6.92,6.92,0,0,0,2.31,2.84l.07,0,0,.08a4.51,4.51,0,0,0,.28,2.61,3.48,3.48,0,0,0,2.06,1.75l.11,0v.11a6.17,6.17,0,0,0,.7,3.77,6.06,6.06,0,0,0,3.09,2.58l.09,0,0,.09a6.54,6.54,0,0,0,1.43,3.05,6.44,6.44,0,0,0,2.93,2l.13,0v.14a3.4,3.4,0,0,0,1.55,2.86,12.26,12.26,0,0,0,3.2,1.81l.09,0,0,.09a4.32,4.32,0,0,0,1.5,2.68,3.46,3.46,0,0,0,3.12.3l.13-.05.08.1L399.31,427l.33.44-.52-.14L398,427a72.24,72.24,0,0,1-15.26-6.33,51.88,51.88,0,0,1-12.26-9.27A34.22,34.22,0,0,1,363,399.71a84.74,84.74,0,0,1-3.35-11.66c-1.61-7.24-2.51-13.18-3.11-17.28-.29-2.06-.5-3.65-.62-4.74-.06-.53-.11-.94-.14-1.23s0-.43,0-.42,0,.14.07.42.1.69.17,1.22c.16,1.1.4,2.69.69,4.73.65,4.09,1.58,10,3.22,17.24a86.7,86.7,0,0,0,3.39,11.61,33.89,33.89,0,0,0,7.45,11.56A52.28,52.28,0,0,0,383,420.35a73,73,0,0,0,15.18,6.29l1.06.28-.19.29-14.23-18.62.21.05a3.84,3.84,0,0,1-3.46-.33,4.74,4.74,0,0,1-1.64-2.9l.11.12a12.53,12.53,0,0,1-3.29-1.87,5.12,5.12,0,0,1-1.25-1.38,2.91,2.91,0,0,1-.42-1.79l.12.18a6.83,6.83,0,0,1-3.09-2.07,7,7,0,0,1-1.48-3.21l.1.12a6.34,6.34,0,0,1-3.25-2.72,6.43,6.43,0,0,1-.73-4l.11.15a3.69,3.69,0,0,1-2.23-1.91,4.8,4.8,0,0,1-.29-2.76l.06.13a7.16,7.16,0,0,1-2.39-3,6.58,6.58,0,0,1-.43-3.41l0,.1a5.47,5.47,0,0,1-1.68-2.61,7.55,7.55,0,0,1-.32-2.74v0Z"/><path class="cls-5" d="M436.19,320.74s-12.11,5.5-19.45,35.28c-3,12.26,4.14,37.21,4.14,37.21l4.59-20.73s-3.84-1.66-1.22-5.63c0,0-2.32-5.09,0-6.87a6.57,6.57,0,0,1,.5-6.8,6,6,0,0,1,1.87-7.35s-1.57-2.72,1.5-4.9a6.64,6.64,0,0,1,2.46-6.38s-.43-2.63,2.34-5.12Z"/><path class="cls-6" d="M409.34,276.43c.47-.93-5.69,8.13-6.67,15.79s-1.38,13.35-1.38,13.35,1.22,5.31-.71,7.75c0,0,2.54,6.88,0,10.73,0,0,2,6.48,0,9,0,0,2.13,6.48,0,8.71,0,0,2.84,5.57,0,8.2,0,0,2,5.57-.4,7.6,0,0,2.53,4.71,0,6.81,0,0,2.23,8.88-1.22,9.9,0,0,1.29,7.79-.92,8.81,0,0,1.43,7.39-1.2,9,0,0,.71,7.09-1.12,8.81,0,0,1.42,5.27-.4,7.7s1.06,16.11,1.06,16.11h11.46l2-10.34s-.81-49.62-1-57.72-1.83-34-1.83-34-.5-23.9-.6-26.73S407.77,279.54,409.34,276.43Z"/><path class="cls-6" d="M419.4,303.36s-5,17.88-2.49,37.11S423.25,383.92,421,398A118.55,118.55,0,0,1,416.05,417a20.12,20.12,0,0,1-10.28,11.56h0s-5.15-7.63-4.24-11.33,4.65-9.59,4.65-9.59,4.17-6.56,3.27-10.41c0,0,2.49-3.17,2-6.79,0,0,2.27-5.43,1.13-8.6,0,0,3.17-3.84,1.59-8.37,0,0,.9-2-.45-6.56,0,0-.68-7-2.27-9.05,0,0,1.8-3.89,0-7.19,0,0,1.4-3.77-.49-6.72a6.77,6.77,0,0,0,0-5.66s1.41-2.83-.36-5.07c0,0,.95-3.78.36-5.9,0,0,1.11-3.66.49-5.78a20.62,20.62,0,0,0,1.4-5.19,5,5,0,0,0,1.65-4.84s1.65.24,2-3.53Z"/><path class="cls-5" d="M419.4,303.36c-.18.31-1,1.69-2.82,4.68v0a8.22,8.22,0,0,1-.4,2,3.55,3.55,0,0,1-.55,1,1.43,1.43,0,0,1-1.11.56l.08-.08a4.76,4.76,0,0,1-.09,2.53,5.51,5.51,0,0,1-1.58,2.39l0-.06a19.52,19.52,0,0,1-1.39,5.22v-.07a7.88,7.88,0,0,1,.11,2.87,17.77,17.77,0,0,1-.6,3v-.06a9.08,9.08,0,0,1,.14,2.91,20.79,20.79,0,0,1-.49,3.05l0-.11a4.3,4.3,0,0,1,.91,2.46,5.93,5.93,0,0,1-.54,2.75v-.12a6.86,6.86,0,0,1,0,5.78v-.13a8.22,8.22,0,0,1,.52,6.84v-.12a8.7,8.7,0,0,1,0,7.32l0-.16a7.05,7.05,0,0,1,1,2.08,20.39,20.39,0,0,1,.59,2.27,48.16,48.16,0,0,1,.75,4.78v0a18.48,18.48,0,0,1,.68,3.2,8.28,8.28,0,0,1-.23,3.48v-.12a8.35,8.35,0,0,1,.28,4.34,10.38,10.38,0,0,1-1.89,4.19l0-.16a9.21,9.21,0,0,1,.12,4.34,23.36,23.36,0,0,1-1.25,4.38v-.09a10.13,10.13,0,0,1-2.07,6.92l0-.15a8.61,8.61,0,0,1-.29,4,23.07,23.07,0,0,1-1.45,3.75,34.5,34.5,0,0,1-2,3.55c-.7,1.16-1.37,2.34-2,3.56a35.45,35.45,0,0,0-1.71,3.76c-.11.32-.23.65-.32,1l-.14.49-.07.5a5.66,5.66,0,0,0,0,1c.06.34.09.68.17,1a19.84,19.84,0,0,0,1.44,3.94,39.76,39.76,0,0,0,2,3.73l.45.72.12.18,0,.08c.22.07-.27,0-.2,0l.05,0,.38-.19c.5-.25,1-.54,1.46-.83a18.93,18.93,0,0,0,2.68-2,19.76,19.76,0,0,0,4.15-5.15,31.31,31.31,0,0,0,2.4-6.1c.66-2.08,1.28-4.16,1.83-6.23a87.62,87.62,0,0,0,2.47-12.37,86.23,86.23,0,0,0,.29-12.09c-.29-7.88-1.12-15.35-2-22.32s-1.75-13.45-2.51-19.37c-.21-1.48-.33-2.93-.49-4.35s-.19-2.8-.28-4.14c-.08-2.69-.09-5.23,0-7.61a111.15,111.15,0,0,1,1.13-12.12c.5-3.3,1-5.84,1.42-7.56.19-.86.36-1.51.47-1.94l.14-.49,0-.17c0,.24-.22,1-.59,2.62s-.87,4.26-1.34,7.56a114.93,114.93,0,0,0-1.08,12.11c-.08,2.37-.06,4.9,0,7.59.09,1.34.16,2.72.29,4.13s.28,2.86.5,4.34c.78,5.92,1.7,12.39,2.55,19.37s1.69,14.44,2,22.34a85.48,85.48,0,0,1-.28,12.14A87.44,87.44,0,0,1,419,408c-.55,2.08-1.16,4.17-1.83,6.25a31.77,31.77,0,0,1-2.43,6.17,20.2,20.2,0,0,1-6.95,7.29c-.49.3-1,.59-1.49.85l-.39.2-.05,0s-.46-.14-.26-.09l-.06-.09-.12-.18-.46-.73a40.34,40.34,0,0,1-2-3.76,19.75,19.75,0,0,1-1.47-4c-.08-.34-.12-.7-.18-1.06a6.49,6.49,0,0,1,0-1.08l.08-.55.14-.51c.1-.34.23-.67.34-1a33.47,33.47,0,0,1,1.73-3.8c.63-1.23,1.31-2.42,2-3.58a35,35,0,0,0,2-3.52A22.15,22.15,0,0,0,409,401.1a8.32,8.32,0,0,0,.29-3.79l0-.08.05-.07a9.78,9.78,0,0,0,2-6.66v0l0,0a22.32,22.32,0,0,0,1.23-4.3,8.73,8.73,0,0,0-.1-4.17l0-.09.06-.08a9.81,9.81,0,0,0,1.82-4,7.92,7.92,0,0,0-.26-4.17l0-.06,0-.07a8.18,8.18,0,0,0,.2-3.31,17.88,17.88,0,0,0-.66-3.13v0a44.83,44.83,0,0,0-.73-4.75,19.83,19.83,0,0,0-.57-2.24,6.79,6.79,0,0,0-.92-2l-.05-.07,0-.09a8.42,8.42,0,0,0,0-7.05l0,0,0-.07a8,8,0,0,0-.48-6.6l0-.06,0-.07a6.64,6.64,0,0,0,0-5.55l0-.05,0-.06a5.62,5.62,0,0,0,.52-2.62,4.05,4.05,0,0,0-.85-2.32l0-.05,0,0a21.67,21.67,0,0,0,.49-3,8.31,8.31,0,0,0-.13-2.83v-.06a17.44,17.44,0,0,0,.6-2.94,7.59,7.59,0,0,0-.09-2.78v-.07a19.55,19.55,0,0,0,1.4-5.16v0l0,0a5.26,5.26,0,0,0,1.54-2.3,4.57,4.57,0,0,0,.1-2.45l0-.09h.1a1.33,1.33,0,0,0,1-.51,3,3,0,0,0,.53-1,8.37,8.37,0,0,0,.42-2h0Z"/><g class="cls-7"><path d="M406.24,427.93a41,41,0,0,0-5.85-15.11,49.72,49.72,0,0,1-4.16-6.82c-1.06-2.45-1.44-5.36-.24-7.74a6.15,6.15,0,0,1-2-5.83A8,8,0,0,1,391,383.8l-3.29-2-.32,10,1.21,15.87,6.83,10.9Z"/></g><path class="cls-6" d="M389.75,360.1c0,.46-2.18,10.33-3.57,16.39-1.2,5.24-4.4,16.75-3,25.7S388.89,419.84,394,424c6.46,5.21,12.49,4.62,12.49,4.62l-11.16-20s-4.05-4.7-2.49-6.73l.69-3.27a5.94,5.94,0,0,1-2.25-6.22,12,12,0,0,1-.15-9.5s-2.18-3.42-.47-6.38c0,0-1.55-3.26-.31-5,0,0-1.56-2.64.16-4.67Z"/><path class="cls-5" d="M389.75,360.1c.06.51.31,2.54.82,6.76v0l0,0a3.37,3.37,0,0,0-.76,2.09,4.94,4.94,0,0,0,.64,2.48l0,.06,0,0a2.57,2.57,0,0,0-.41,1.07,5,5,0,0,0,0,1.23,9.19,9.19,0,0,0,.76,2.57l0,.06,0,.05a5.11,5.11,0,0,0-.6,3,8,8,0,0,0,1.08,3.23l0,.07,0,.06a11.68,11.68,0,0,0,.17,9.37l0,.06,0,.05a5.34,5.34,0,0,0,.12,3.28,6.27,6.27,0,0,0,2.08,2.77l.08.07,0,.1c-.21,1-.45,2.13-.69,3.27v0l0,0a2,2,0,0,0-.25,1.62,6.49,6.49,0,0,0,.61,1.71,16.83,16.83,0,0,0,2.13,3.18v0h0c3.46,6.18,7.23,12.94,11.17,20l.14.26h-.29a13.86,13.86,0,0,1-3.48-.28,20.26,20.26,0,0,1-7.34-3.08,21.31,21.31,0,0,1-5.58-5.37,40.6,40.6,0,0,1-6.1-13.24,35.31,35.31,0,0,1-1.15-13.13,82.11,82.11,0,0,1,1.85-11.37c1.64-6.84,2.89-12.39,3.75-16.23l1-4.42c.19-.91.28-1.33.32-1.54a1.72,1.72,0,0,1,0,.4c0,.26-.11.65-.21,1.16-.2,1-.51,2.51-.92,4.43-.81,3.85-2,9.41-3.64,16.26a84.09,84.09,0,0,0-1.8,11.33,39.88,39.88,0,0,0,0,6.38,38.57,38.57,0,0,0,1.21,6.64,39.82,39.82,0,0,0,6.07,13.11,20.57,20.57,0,0,0,5.48,5.28,20,20,0,0,0,7.21,3,13.64,13.64,0,0,0,3.38.27l-.15.28-11.14-20,0,0a17.76,17.76,0,0,1-2.18-3.25,7.37,7.37,0,0,1-.64-1.81,2.33,2.33,0,0,1,.33-1.88l0,.07c.24-1.14.48-2.26.7-3.27l.06.17a6.68,6.68,0,0,1-2.19-2.93,5.65,5.65,0,0,1-.11-3.47v.11a11.91,11.91,0,0,1-.14-9.62V383a8.34,8.34,0,0,1-1.11-3.35,5.34,5.34,0,0,1,.65-3.16v.1a9.4,9.4,0,0,1-.76-2.64,5.13,5.13,0,0,1,0-1.3,2.84,2.84,0,0,1,.45-1.14v.1a5.13,5.13,0,0,1-.65-2.58,3.5,3.5,0,0,1,.83-2.18l0,.05C390,362.64,389.8,360.61,389.75,360.1Z"/><polygon class="cls-9" points="427.4 461.18 377.14 461.18 371.38 422 433.17 422 427.4 461.18"/><polygon class="cls-9" points="366.77 430.93 366.74 422 437.72 422 437.16 430.93 366.77 430.93"/><path class="cls-5" d="M437.16,430.93c0,.13-15.78.24-35.24.24s-35.25-.11-35.25-.24,15.78-.24,35.25-.24S437.16,430.8,437.16,430.93Z"/><g class="cls-7"><path d="M374.93,430.86c6.31,2.95,17.33,4.13,27.46,3.75a137.93,137.93,0,0,0,27.23-3.92Z"/></g></g><g id="Device"><path class="cls-5" d="M322.39,461.13l-128.7-.62a28,28,0,0,1-27.91-28.16l1.36-322.66a28.05,28.05,0,0,1,28.17-27.93h0L324,82.32a28.05,28.05,0,0,1,27.91,28.16l-1.36,322.69a28,28,0,0,1-28.11,28Z"/><path class="cls-10" d="M322.93,93.5,298,93.38,225.13,93h-8.77L194.5,93a19.62,19.62,0,0,0-19.72,19.53h0l-1.33,315A19.63,19.63,0,0,0,193,447.19h0l128.46.59a19.63,19.63,0,0,0,19.7-19.57h0l1.33-315A19.63,19.63,0,0,0,322.94,93.5Z"/><path class="cls-5" d="M324.09,122.74a1.61,1.61,0,1,1-1.6-1.61h0A1.6,1.6,0,0,1,324.09,122.74Z"/><path class="cls-5" d="M324.07,128.55a1.61,1.61,0,1,1-1.6-1.61A1.6,1.6,0,0,1,324.07,128.55Z"/><path class="cls-5" d="M324.05,134.3a1.62,1.62,0,1,1-1.62-1.6h0A1.6,1.6,0,0,1,324.05,134.3Z"/><rect class="cls-9" x="191.05" y="166.64" width="136.87" height="86.83" rx="4.08"/><path class="cls-4" d="M212.38,213.19H211.2v1.55h-.61v-1.55h-3.32v-.43l3.12-3.92h.68l-3,3.8h2.55v-1.35h.59v1.35h1.18Z"/><path class="cls-4" d="M216.71,213.05c0,.95-.71,1.75-2.14,1.75a3.09,3.09,0,0,1-2.13-.76l.31-.48a2.59,2.59,0,0,0,1.82.68c1,0,1.52-.46,1.52-1.19s-.5-1.17-1.59-1.17h-.42v-.44l1.63-2.05h-3v-.55h3.8v.44l-1.66,2.1C216.08,211.49,216.71,212.11,216.71,213.05Z"/><path class="cls-4" d="M221.48,213c0,1-.7,1.79-2.14,1.79a3.11,3.11,0,0,1-2.12-.76l.31-.48a2.53,2.53,0,0,0,1.8.68c1,0,1.54-.49,1.54-1.21s-.48-1.22-2-1.22h-1.25l.3-3h3.23v.55h-2.69l-.21,1.9H219C220.8,211.27,221.48,212,221.48,213Z"/><path class="cls-4" d="M226.68,213a1.84,1.84,0,0,1-1.86,1.82h-.15c-1.57,0-2.42-1.09-2.42-3s1.09-3,2.69-3a2.72,2.72,0,0,1,1.4.32l-.25.48a2.05,2.05,0,0,0-1.14-.27c-1.27,0-2.09.82-2.09,2.42v.48a1.89,1.89,0,0,1,1.81-1,1.75,1.75,0,0,1,2,1.77Zm-.6,0c0-.78-.58-1.28-1.48-1.28a1.37,1.37,0,0,0-1.51,1.21s0,.05,0,.07c0,.66.54,1.28,1.56,1.28a1.29,1.29,0,0,0,1.43-1.13.66.66,0,0,0,0-.14Z"/><path class="cls-4" d="M239.42,214.74,238,212.89l-1.41,1.85h-.68l1.76-2.27L236,210.32h.67L238,212l1.33-1.72H240l-1.67,2.12,1.76,2.27Z"/><path class="cls-4" d="M243.92,214.74l-1.43-1.85-1.42,1.85h-.67l1.75-2.27-1.67-2.15h.68l1.33,1.72,1.33-1.72h.65l-1.63,2.12,1.76,2.27Z"/><path class="cls-4" d="M248.42,214.74l-1.4-1.85-1.42,1.85h-.67l1.75-2.27L245,210.32h.68L247,212l1.33-1.72H249l-1.67,2.12,1.78,2.27Z"/><path class="cls-4" d="M252.93,214.74l-1.4-1.85-1.44,1.85h-.68l1.76-2.27-1.67-2.15h.67L251.5,212l1.33-1.72h.67l-1.67,2.12,1.77,2.27Z"/><path class="cls-4" d="M268.45,214.74l-1.4-1.85-1.42,1.85H265l1.75-2.3L265,210.29h.68l1.33,1.73,1.33-1.73h.7l-1.72,2.15,1.78,2.27Z"/><path class="cls-4" d="M273,214.74l-1.41-1.85-1.41,1.85h-.68l1.76-2.27-1.67-2.15h.67l1.33,1.72,1.33-1.72h.67l-1.68,2.12,1.77,2.27Z"/><path class="cls-4" d="M277.45,214.74,276,212.89l-1.41,1.85H274l1.78-2.3-1.67-2.15h.67l1.33,1.73,1.33-1.73h.66l-1.68,2.15,1.76,2.27Z"/><path class="cls-4" d="M282,214.74l-1.4-1.85-1.42,1.85h-.67l1.74-2.27-1.62-2.15h.67l1.34,1.72,1.33-1.72h.66l-1.72,2.12,1.78,2.27Z"/><path class="cls-4" d="M295.9,208.84v5.9h-.6v-5.35h-1.4v-.55Z"/><path class="cls-4" d="M301.2,213.05c0,.95-.71,1.75-2.13,1.75a3.09,3.09,0,0,1-2.13-.76l.3-.48a2.57,2.57,0,0,0,1.83.68c.95,0,1.52-.46,1.52-1.19s-.51-1.17-1.6-1.17h-.42v-.44l1.64-2.05h-3v-.55H301v.44l-1.67,2.1C300.58,211.49,301.2,212.11,301.2,213.05Z"/><path class="cls-4" d="M307.07,213.19h-1.18v1.55h-.6v-1.55H302v-.43l3.13-3.92h.67l-3,3.8h2.56v-1.35h.59v1.35h1.18Z"/><path class="cls-4" d="M311.62,214.21v.53h-4.14v-.4l2.45-2.4c.67-.65.8-1.05.8-1.45,0-.69-.48-1.1-1.39-1.1a2,2,0,0,0-1.6.65l-.44-.37a2.62,2.62,0,0,1,2.09-.84c1.2,0,2,.6,2,1.59a2.42,2.42,0,0,1-1,1.84l-2,2Z"/><rect class="cls-4" x="203.59" y="235.39" width="41.74" height="3.61" rx="1.51"/><rect class="cls-4" x="291.15" y="235.39" width="23.19" height="3.61" rx="1.51"/><rect class="cls-4" x="294.87" y="178.68" width="12.67" height="12.67" rx="2.99"/><path class="cls-4" d="M209.59,186.75v.32c0,.91-.15,2.2-1.84,2.2-1.49,0-1.8-.93-1.8-2.15v-4c0-1.24.56-2.06,1.82-2.06,1.5,0,1.79,1,1.79,2.11v.36h-1.24V183c0-.53-.13-.83-.56-.83s-.55.29-.55.84v4.23c0,.53.1.93.57.93s.56-.35.56-1v-.45Z"/><path class="cls-4" d="M212.37,187l-.28,2.14h-1.26l1.29-8h1.75l1.34,8h-1.29L213.6,187Zm1.09-1.14c-.19-1.36-.36-2.65-.45-3.56h0c0,.66-.27,2.38-.43,3.56Z"/><path class="cls-4" d="M217.88,185.57v3.58h-1.24v-8h1.71c1.22,0,1.94.49,1.94,1.93v.3c0,1.23-.5,1.55-.81,1.68.46.21.73.55.73,1.64a21,21,0,0,0,.08,2.46h-1.2a18.3,18.3,0,0,1-.08-2.38c0-1-.13-1.2-.84-1.2Zm0-1h.28c.66,0,.9-.25.9-1.12v-.28c0-.61-.13-1-.83-1h-.35Z"/><path class="cls-4" d="M222.87,182.28h-1.28v-1.14h3.81v1.14h-1.29v6.87h-1.24Z"/><path class="cls-4" d="M227.43,187l-.28,2.14h-1.26l1.29-8h1.75l1.34,8H229l-.32-2.14Zm-.92-6.4v-.23c0-.81.4-1,.85-1s1,.35,1.29.35c.11,0,.22,0,.22-.24v-.12h.75v.14c0,.87-.27,1.14-.84,1.14s-1-.33-1.28-.33a.2.2,0,0,0-.23.23v.09Zm2,5.26c-.19-1.36-.36-2.65-.45-3.56h0c0,.66-.27,2.38-.43,3.56Z"/><path class="cls-4" d="M235.53,183.26V187c0,1.53-.66,2.26-2,2.26s-1.89-.75-1.89-2.24v-3.77c0-1.54.77-2.24,2-2.24S235.53,181.72,235.53,183.26Zm-2.64-.12v4c0,.67.24,1,.68,1s.7-.29.7-1v-4c0-.63-.2-1-.7-1S232.89,182.47,232.89,183.14Z"/><g class="cls-8"><path class="cls-4" d="M323.38,165.75H195.59a4.53,4.53,0,0,0-4.54,4.53v22.93c8.07,5.63,19.16,6.65,29,4.57,11.6-2.42,22.1-8.36,32.9-13.22s22.69-8.76,34.36-6.75c11,1.9,20.42,8.74,30.39,13.83a58.72,58.72,0,0,0,10.22,4.12V170.28A4.53,4.53,0,0,0,323.38,165.75Z"/></g><path class="cls-6" d="M201.75,295.39a3.54,3.54,0,1,1-3.53-3.54A3.54,3.54,0,0,1,201.75,295.39Z"/><path class="cls-2" d="M282.33,297.68H211.84a2.29,2.29,0,0,1-2.29-2.29h0a2.28,2.28,0,0,1,2.29-2.29h70.49a2.28,2.28,0,0,1,2.29,2.29h0A2.29,2.29,0,0,1,282.33,297.68Z"/><circle class="cls-6" cx="198.22" cy="312.4" r="3.54"/><path class="cls-2" d="M238.9,314.69H211.84a2.29,2.29,0,0,1-2.29-2.29h0a2.29,2.29,0,0,1,2.29-2.29H238.9a2.29,2.29,0,0,1,2.29,2.29h0A2.29,2.29,0,0,1,238.9,314.69Z"/><path class="cls-2" d="M298.4,297h2.51a.63.63,0,0,0,.62-.63.62.62,0,0,0-.62-.62H298.4a.63.63,0,0,0-.63.62.65.65,0,0,0,.63.63Z"/><path class="cls-2" d="M310.55,298.32a2.78,2.78,0,0,1-1.79.62v1.19h-.52V299a5.12,5.12,0,0,1-1.42-.29,3,3,0,0,1-1.05-.65l.3-.59a3,3,0,0,0,.95.59,3.94,3.94,0,0,0,1.22.28v-2.72a9.37,9.37,0,0,1-1.19-.38,2.11,2.11,0,0,1-.79-.59,1.58,1.58,0,0,1-.31-1,1.75,1.75,0,0,1,.58-1.34,2.73,2.73,0,0,1,1.71-.64V290.4h.52v1.18a4.77,4.77,0,0,1,1.14.19,3.88,3.88,0,0,1,1,.45l-.26.61a3.69,3.69,0,0,0-.9-.42,3.9,3.9,0,0,0-.94-.18V295a10.4,10.4,0,0,1,1.25.37,2,2,0,0,1,.82.59,1.55,1.55,0,0,1,.33,1A1.72,1.72,0,0,1,310.55,298.32Zm-3.45-3.95a3.87,3.87,0,0,0,1.14.47v-2.58a1.92,1.92,0,0,0-1.15.41,1.15,1.15,0,0,0-.39.88A1,1,0,0,0,307.1,294.37Zm2.89,3.51a1.05,1.05,0,0,0,.42-.87.91.91,0,0,0-.43-.83,3.86,3.86,0,0,0-1.22-.48v2.59A2.11,2.11,0,0,0,310,297.88Z"/><path class="cls-2" d="M316.92,298.32a2.82,2.82,0,0,1-1.79.62v1.19h-.52V299a5,5,0,0,1-1.42-.29,2.82,2.82,0,0,1-1.05-.65l.3-.59a3,3,0,0,0,.94.59,3.94,3.94,0,0,0,1.23.28v-2.72a8.88,8.88,0,0,1-1.19-.38,2,2,0,0,1-.79-.59,1.59,1.59,0,0,1-.32-1,1.75,1.75,0,0,1,.58-1.34,2.79,2.79,0,0,1,1.72-.64V290.4h.52v1.18a4.85,4.85,0,0,1,1.14.19,3.88,3.88,0,0,1,1,.45l-.26.61a3.69,3.69,0,0,0-.9-.42,4,4,0,0,0-.94-.18V295a11,11,0,0,1,1.25.37,2.11,2.11,0,0,1,.82.59,1.55,1.55,0,0,1,.33,1A1.75,1.75,0,0,1,316.92,298.32Zm-3.45-3.95a3.65,3.65,0,0,0,1.14.47v-2.58a2,2,0,0,0-1.16.41,1.17,1.17,0,0,0-.38.88A.93.93,0,0,0,313.47,294.37Zm2.89,3.51a1.07,1.07,0,0,0,.41-.87.92.92,0,0,0-.42-.83,4,4,0,0,0-1.22-.48v2.59A2.16,2.16,0,0,0,316.36,297.88Z"/><circle class="cls-6" cx="198.22" cy="393.49" r="3.54"/><path class="cls-2" d="M282.33,395.78H211.84a2.28,2.28,0,0,1-2.29-2.29h0a2.29,2.29,0,0,1,2.29-2.29h70.49a2.29,2.29,0,0,1,2.29,2.29h0A2.28,2.28,0,0,1,282.33,395.78Z"/><path class="cls-2" d="M298.4,395.13h2.51a.63.63,0,0,0,0-1.25H298.4a.63.63,0,1,0,0,1.25Z"/><path class="cls-2" d="M310.55,396.43a2.83,2.83,0,0,1-1.79.62v1.19h-.52v-1.18a4.79,4.79,0,0,1-1.42-.3,2.85,2.85,0,0,1-1.05-.65l.3-.59a2.7,2.7,0,0,0,.95.59,3.67,3.67,0,0,0,1.22.28v-2.72a8,8,0,0,1-1.19-.38,2,2,0,0,1-.79-.59,1.56,1.56,0,0,1-.31-1,1.77,1.77,0,0,1,.58-1.34,2.73,2.73,0,0,1,1.71-.63v-1.19h.52v1.18a4,4,0,0,1,1.14.19,3.28,3.28,0,0,1,1,.45l-.26.61a3.69,3.69,0,0,0-.9-.42,3.13,3.13,0,0,0-.94-.18v2.74a10.19,10.19,0,0,1,1.25.38,2,2,0,0,1,.82.58,1.58,1.58,0,0,1,.33,1A1.75,1.75,0,0,1,310.55,396.43Zm-3.45-4a3.61,3.61,0,0,0,1.14.48v-2.59a1.86,1.86,0,0,0-1.15.42,1.14,1.14,0,0,0-.39.87A1,1,0,0,0,307.1,392.47ZM310,396a1.08,1.08,0,0,0,.42-.87.94.94,0,0,0-.43-.84,4.14,4.14,0,0,0-1.22-.47v2.58A2.11,2.11,0,0,0,310,396Z"/><path class="cls-2" d="M316.92,396.43a2.88,2.88,0,0,1-1.79.62v1.19h-.52v-1.18a4.73,4.73,0,0,1-1.42-.3,2.69,2.69,0,0,1-1.05-.65l.3-.59a2.65,2.65,0,0,0,.94.59,3.68,3.68,0,0,0,1.23.28v-2.72a7.63,7.63,0,0,1-1.19-.38,1.94,1.94,0,0,1-.79-.59,1.57,1.57,0,0,1-.32-1,1.77,1.77,0,0,1,.58-1.34,2.79,2.79,0,0,1,1.72-.63v-1.19h.52v1.18a4,4,0,0,1,1.14.19,3.28,3.28,0,0,1,1,.45l-.26.61a3.69,3.69,0,0,0-.9-.42,3.19,3.19,0,0,0-.94-.18v2.74a10.77,10.77,0,0,1,1.25.38,2.08,2.08,0,0,1,.82.58,1.58,1.58,0,0,1,.33,1A1.78,1.78,0,0,1,316.92,396.43Zm-3.45-4a3.42,3.42,0,0,0,1.14.48v-2.59a1.89,1.89,0,0,0-1.16.42,1.17,1.17,0,0,0-.38.87A.92.92,0,0,0,313.47,392.47Zm2.89,3.52a1.1,1.1,0,0,0,.41-.87,1,1,0,0,0-.42-.84,4.25,4.25,0,0,0-1.22-.47v2.58A2.16,2.16,0,0,0,316.36,396Z"/><path class="cls-6" d="M201.75,344.81a3.54,3.54,0,1,1-3.53-3.54A3.54,3.54,0,0,1,201.75,344.81Z"/><path class="cls-2" d="M282.33,347.1H211.84a2.29,2.29,0,0,1-2.29-2.29h0a2.28,2.28,0,0,1,2.29-2.29h70.49a2.28,2.28,0,0,1,2.29,2.29h0A2.29,2.29,0,0,1,282.33,347.1Z"/><path class="cls-2" d="M298.4,346.45h2.51a.63.63,0,0,0,.62-.63.62.62,0,0,0-.62-.62H298.4a.63.63,0,0,0-.63.62.65.65,0,0,0,.63.63Z"/><path class="cls-2" d="M310.55,347.74a2.78,2.78,0,0,1-1.79.62v1.19h-.52v-1.18a4.79,4.79,0,0,1-1.42-.3,2.84,2.84,0,0,1-1.05-.64l.3-.59a3,3,0,0,0,.95.59,3.94,3.94,0,0,0,1.22.28V345a9.37,9.37,0,0,1-1.19-.38,2.11,2.11,0,0,1-.79-.59,1.58,1.58,0,0,1-.31-1,1.75,1.75,0,0,1,.58-1.34,2.73,2.73,0,0,1,1.71-.64v-1.19h.52V341a4.32,4.32,0,0,1,1.14.19,3.88,3.88,0,0,1,1,.45l-.26.61a3.69,3.69,0,0,0-.9-.42,3.9,3.9,0,0,0-.94-.18v2.75a10.4,10.4,0,0,1,1.25.37,2,2,0,0,1,.82.59,1.55,1.55,0,0,1,.33,1A1.75,1.75,0,0,1,310.55,347.74Zm-3.45-4a3.61,3.61,0,0,0,1.14.48v-2.59a1.92,1.92,0,0,0-1.15.42,1.15,1.15,0,0,0-.39.88A.93.93,0,0,0,307.1,343.78ZM310,347.3a1.05,1.05,0,0,0,.42-.87.91.91,0,0,0-.43-.83,3.86,3.86,0,0,0-1.22-.48v2.59A2.11,2.11,0,0,0,310,347.3Z"/><path class="cls-2" d="M316.92,347.74a2.82,2.82,0,0,1-1.79.62v1.19h-.52v-1.18a4.73,4.73,0,0,1-1.42-.3,2.68,2.68,0,0,1-1.05-.64l.3-.59a3,3,0,0,0,.94.59,3.94,3.94,0,0,0,1.23.28V345a8.88,8.88,0,0,1-1.19-.38,2,2,0,0,1-.79-.59,1.59,1.59,0,0,1-.32-1,1.75,1.75,0,0,1,.58-1.34,2.79,2.79,0,0,1,1.72-.64v-1.19h.52V341a4.39,4.39,0,0,1,1.14.19,3.88,3.88,0,0,1,1,.45l-.26.61a3.69,3.69,0,0,0-.9-.42,4,4,0,0,0-.94-.18v2.75a11,11,0,0,1,1.25.37,2.11,2.11,0,0,1,.82.59,1.55,1.55,0,0,1,.33,1A1.78,1.78,0,0,1,316.92,347.74Zm-3.45-4a3.42,3.42,0,0,0,1.14.48v-2.59a2,2,0,0,0-1.16.42,1.17,1.17,0,0,0-.38.88A.9.9,0,0,0,313.47,343.78Zm2.89,3.52a1.07,1.07,0,0,0,.41-.87.92.92,0,0,0-.42-.83,4,4,0,0,0-1.22-.48v2.59A2.16,2.16,0,0,0,316.36,347.3Z"/><path class="cls-9" d="M201.75,328.46a3.54,3.54,0,1,1-3.53-3.53A3.53,3.53,0,0,1,201.75,328.46Z"/><path class="cls-2" d="M282.33,330.75H211.84a2.28,2.28,0,0,1-2.29-2.29h0a2.28,2.28,0,0,1,2.29-2.28h70.49a2.28,2.28,0,0,1,2.29,2.28h0A2.28,2.28,0,0,1,282.33,330.75Z"/><path class="cls-2" d="M297,329.49h2.5a.63.63,0,1,0,0-1.25H297a.63.63,0,0,0-.63.62.65.65,0,0,0,.63.63Z"/><path class="cls-2" d="M298.84,330.12v-2.51a.63.63,0,0,0-.62-.63.65.65,0,0,0-.63.63v2.51a.63.63,0,0,0,.63.62.62.62,0,0,0,.62-.62Z"/><path class="cls-2" d="M309.12,330.78a2.82,2.82,0,0,1-1.79.62v1.19h-.52v-1.18a4.72,4.72,0,0,1-1.42-.29,2.82,2.82,0,0,1-1.05-.65l.3-.59a3,3,0,0,0,.94.59,3.94,3.94,0,0,0,1.23.28V328a8.88,8.88,0,0,1-1.19-.38,2,2,0,0,1-.79-.59,1.59,1.59,0,0,1-.32-1,1.79,1.79,0,0,1,.58-1.34,2.85,2.85,0,0,1,1.72-.64v-1.19h.52V324a4.85,4.85,0,0,1,1.14.19,3.88,3.88,0,0,1,1,.45l-.26.62a3.73,3.73,0,0,0-.9-.43,4,4,0,0,0-.94-.18v2.75a10.4,10.4,0,0,1,1.25.37,2.11,2.11,0,0,1,.82.59,1.55,1.55,0,0,1,.33,1A1.72,1.72,0,0,1,309.12,330.78Zm-3.45-3.95a3.65,3.65,0,0,0,1.14.47v-2.58a1.86,1.86,0,0,0-1.15.42,1.11,1.11,0,0,0-.39.87A.93.93,0,0,0,305.67,326.83Zm2.89,3.52a1.07,1.07,0,0,0,.41-.87.93.93,0,0,0-.42-.84,3.86,3.86,0,0,0-1.22-.48v2.59A2.24,2.24,0,0,0,308.56,330.35Z"/><path class="cls-2" d="M315.48,330.78a2.78,2.78,0,0,1-1.79.62v1.19h-.51v-1.18a4.79,4.79,0,0,1-1.43-.29,3,3,0,0,1-1.05-.65l.3-.59a3,3,0,0,0,.95.59,3.94,3.94,0,0,0,1.23.28V328a9.07,9.07,0,0,1-1.2-.38,2.11,2.11,0,0,1-.79-.59,1.58,1.58,0,0,1-.31-1,1.75,1.75,0,0,1,.58-1.34,2.82,2.82,0,0,1,1.72-.64v-1.19h.51V324a4.85,4.85,0,0,1,1.15.19,4,4,0,0,1,1,.45l-.26.62a3.73,3.73,0,0,0-.9-.43,3.9,3.9,0,0,0-.94-.18v2.75a10.4,10.4,0,0,1,1.25.37,2,2,0,0,1,.82.59,1.55,1.55,0,0,1,.33,1A1.72,1.72,0,0,1,315.48,330.78ZM312,326.83a3.83,3.83,0,0,0,1.15.47v-2.58a1.87,1.87,0,0,0-1.16.42,1.11,1.11,0,0,0-.39.87A1,1,0,0,0,312,326.83Zm2.89,3.52a1.08,1.08,0,0,0,.42-.87.91.91,0,0,0-.43-.84,3.86,3.86,0,0,0-1.22-.48v2.59A2.18,2.18,0,0,0,314.92,330.35Z"/><path class="cls-2" d="M321.85,330.78a2.82,2.82,0,0,1-1.79.62v1.19h-.52v-1.18a4.66,4.66,0,0,1-1.42-.29,2.82,2.82,0,0,1-1.05-.65l.29-.59a3.14,3.14,0,0,0,.95.59,3.94,3.94,0,0,0,1.23.28V328a8.88,8.88,0,0,1-1.19-.38,2,2,0,0,1-.79-.59,1.59,1.59,0,0,1-.32-1,1.75,1.75,0,0,1,.58-1.34,2.85,2.85,0,0,1,1.72-.64v-1.19h.52V324a4.85,4.85,0,0,1,1.14.19,3.88,3.88,0,0,1,1,.45l-.26.62a3.91,3.91,0,0,0-.9-.43,4,4,0,0,0-.94-.18v2.75a11,11,0,0,1,1.25.37,2.18,2.18,0,0,1,.82.59,1.55,1.55,0,0,1,.33,1A1.75,1.75,0,0,1,321.85,330.78Zm-3.45-3.95a3.65,3.65,0,0,0,1.14.47v-2.58a1.89,1.89,0,0,0-1.16.42,1.14,1.14,0,0,0-.38.87A.93.93,0,0,0,318.4,326.83Zm2.89,3.52a1.1,1.1,0,0,0,.41-.87.93.93,0,0,0-.42-.84,4,4,0,0,0-1.22-.48v2.59A2.24,2.24,0,0,0,321.29,330.35Z"/><circle class="cls-9" cx="198.22" cy="362.39" r="3.54"/><path class="cls-2" d="M282.33,364.68H211.84a2.29,2.29,0,0,1-2.29-2.29h0a2.28,2.28,0,0,1,2.29-2.29h70.49a2.28,2.28,0,0,1,2.29,2.29h0A2.29,2.29,0,0,1,282.33,364.68Z"/><path class="cls-2" d="M297,363.41h2.5a.63.63,0,1,0,0-1.25H297a.64.64,0,0,0-.63.62.65.65,0,0,0,.63.63Z"/><path class="cls-2" d="M298.84,364v-2.51a.62.62,0,0,0-.62-.62.63.63,0,0,0-.63.62V364a.63.63,0,0,0,.63.62.62.62,0,0,0,.62-.62Z"/><path class="cls-2" d="M309.12,364.71a2.88,2.88,0,0,1-1.79.61v1.19h-.52v-1.18a4.72,4.72,0,0,1-1.42-.29,2.82,2.82,0,0,1-1.05-.65l.3-.59a2.8,2.8,0,0,0,.94.59,3.94,3.94,0,0,0,1.23.28V362a7.63,7.63,0,0,1-1.19-.38,1.94,1.94,0,0,1-.79-.59,1.59,1.59,0,0,1-.32-1,1.79,1.79,0,0,1,.58-1.34,2.85,2.85,0,0,1,1.72-.64v-1.19h.52V358a4.4,4.4,0,0,1,1.14.2,3.28,3.28,0,0,1,1,.45l-.26.61a4.14,4.14,0,0,0-.9-.43,3.52,3.52,0,0,0-.94-.17v2.74a8.7,8.7,0,0,1,1.25.38,2,2,0,0,1,.82.58,1.56,1.56,0,0,1,.33,1A1.75,1.75,0,0,1,309.12,364.71Zm-3.45-4a3.65,3.65,0,0,0,1.14.47v-2.58a1.86,1.86,0,0,0-1.15.42,1.13,1.13,0,0,0-.39.87A.93.93,0,0,0,305.67,360.75Zm2.89,3.52a1.07,1.07,0,0,0,.41-.87.93.93,0,0,0-.42-.84,3.86,3.86,0,0,0-1.22-.48v2.59A2.24,2.24,0,0,0,308.56,364.27Z"/><path class="cls-2" d="M315.48,364.71a2.83,2.83,0,0,1-1.79.61v1.19h-.51v-1.18a4.79,4.79,0,0,1-1.43-.29,3,3,0,0,1-1.05-.65l.3-.59a2.85,2.85,0,0,0,.95.59,3.94,3.94,0,0,0,1.23.28V362a7.79,7.79,0,0,1-1.2-.38,2,2,0,0,1-.79-.59,1.58,1.58,0,0,1-.31-1,1.75,1.75,0,0,1,.58-1.34,2.82,2.82,0,0,1,1.72-.64v-1.19h.51V358a4.4,4.4,0,0,1,1.15.2,3.34,3.34,0,0,1,1,.45l-.26.61a4.14,4.14,0,0,0-.9-.43,3.45,3.45,0,0,0-.94-.17v2.74a8.7,8.7,0,0,1,1.25.38,1.92,1.92,0,0,1,.82.58,1.56,1.56,0,0,1,.33,1A1.75,1.75,0,0,1,315.48,364.71Zm-3.45-4a3.83,3.83,0,0,0,1.15.47v-2.58a1.87,1.87,0,0,0-1.16.42,1.13,1.13,0,0,0-.39.87A1,1,0,0,0,312,360.75Zm2.89,3.52a1.08,1.08,0,0,0,.42-.87.91.91,0,0,0-.43-.84,3.86,3.86,0,0,0-1.22-.48v2.59A2.18,2.18,0,0,0,314.92,364.27Z"/><path class="cls-2" d="M321.85,364.71a2.88,2.88,0,0,1-1.79.61v1.19h-.52v-1.18a4.66,4.66,0,0,1-1.42-.29,2.82,2.82,0,0,1-1.05-.65l.29-.59a3,3,0,0,0,.95.59,3.94,3.94,0,0,0,1.23.28V362a7.63,7.63,0,0,1-1.19-.38,1.94,1.94,0,0,1-.79-.59,1.59,1.59,0,0,1-.32-1,1.75,1.75,0,0,1,.58-1.34,2.85,2.85,0,0,1,1.72-.64v-1.19h.52V358a4.4,4.4,0,0,1,1.14.2,3.28,3.28,0,0,1,1,.45l-.26.61a4.37,4.37,0,0,0-.9-.43,3.52,3.52,0,0,0-.94-.17v2.74a9.11,9.11,0,0,1,1.25.38,2.05,2.05,0,0,1,.82.58,1.56,1.56,0,0,1,.33,1A1.78,1.78,0,0,1,321.85,364.71Zm-3.45-4a3.65,3.65,0,0,0,1.14.47v-2.58a1.89,1.89,0,0,0-1.16.42,1.15,1.15,0,0,0-.38.87A.93.93,0,0,0,318.4,360.75Zm2.89,3.52a1.1,1.1,0,0,0,.41-.87.93.93,0,0,0-.42-.84,4,4,0,0,0-1.22-.48v2.59A2.24,2.24,0,0,0,321.29,364.27Z"/><circle class="cls-9" cx="198.22" cy="376.99" r="3.54"/><path class="cls-2" d="M282.33,379.28H211.84a2.29,2.29,0,0,1-2.29-2.29h0a2.29,2.29,0,0,1,2.29-2.29h70.49a2.29,2.29,0,0,1,2.29,2.29h0A2.29,2.29,0,0,1,282.33,379.28Z"/><path class="cls-2" d="M297,378h2.5a.63.63,0,0,0,.63-.62.65.65,0,0,0-.63-.63H297a.63.63,0,1,0,0,1.25Z"/><path class="cls-2" d="M298.84,378.64v-2.51a.62.62,0,0,0-.62-.62.63.63,0,0,0-.63.62v2.51a.63.63,0,1,0,1.25,0Z"/><path class="cls-2" d="M309.12,379.31a2.88,2.88,0,0,1-1.79.62v1.19h-.52v-1.18a4.73,4.73,0,0,1-1.42-.3,2.69,2.69,0,0,1-1.05-.65l.3-.59a2.65,2.65,0,0,0,.94.59,3.68,3.68,0,0,0,1.23.28v-2.72a7.63,7.63,0,0,1-1.19-.38,1.94,1.94,0,0,1-.79-.59,1.57,1.57,0,0,1-.32-1,1.8,1.8,0,0,1,.58-1.34,2.79,2.79,0,0,1,1.72-.63v-1.19h.52v1.18a4,4,0,0,1,1.14.19,3.28,3.28,0,0,1,1,.45l-.26.61a3.69,3.69,0,0,0-.9-.42,3.19,3.19,0,0,0-.94-.18V376a10.19,10.19,0,0,1,1.25.38,2.08,2.08,0,0,1,.82.58,1.58,1.58,0,0,1,.33,1A1.75,1.75,0,0,1,309.12,379.31Zm-3.45-4a3.42,3.42,0,0,0,1.14.48v-2.59a1.86,1.86,0,0,0-1.15.42,1.14,1.14,0,0,0-.39.87A.92.92,0,0,0,305.67,375.35Zm2.89,3.52A1.07,1.07,0,0,0,309,378a1,1,0,0,0-.42-.84,4.14,4.14,0,0,0-1.22-.47v2.58A2.16,2.16,0,0,0,308.56,378.87Z"/><circle class="cls-9" cx="198.22" cy="410.47" r="3.54"/><path class="cls-2" d="M282.33,412.76H211.84a2.29,2.29,0,0,1-2.29-2.29h0a2.29,2.29,0,0,1,2.29-2.29h70.49a2.29,2.29,0,0,1,2.29,2.29h0A2.29,2.29,0,0,1,282.33,412.76Z"/><path class="cls-2" d="M297,411.49h2.5a.63.63,0,0,0,.63-.62.65.65,0,0,0-.63-.63H297a.63.63,0,1,0,0,1.25Z"/><path class="cls-2" d="M298.84,412.12v-2.51a.62.62,0,0,0-.62-.62.63.63,0,0,0-.63.62v2.51a.63.63,0,1,0,1.25,0Z"/><path class="cls-2" d="M309.12,412.79a2.82,2.82,0,0,1-1.79.61v1.2h-.52v-1.18a4.73,4.73,0,0,1-1.42-.3,2.69,2.69,0,0,1-1.05-.65l.3-.59a2.8,2.8,0,0,0,.94.59,3.94,3.94,0,0,0,1.23.28V410a7.63,7.63,0,0,1-1.19-.38,1.94,1.94,0,0,1-.79-.59,1.57,1.57,0,0,1-.32-1,1.8,1.8,0,0,1,.58-1.34,2.79,2.79,0,0,1,1.72-.63v-1.19h.52v1.18a4,4,0,0,1,1.14.19,3.28,3.28,0,0,1,1,.45l-.26.61a3.69,3.69,0,0,0-.9-.42,3.19,3.19,0,0,0-.94-.18v2.74a10.19,10.19,0,0,1,1.25.38,2.08,2.08,0,0,1,.82.58,1.58,1.58,0,0,1,.33,1A1.75,1.75,0,0,1,309.12,412.79Zm-3.45-4a3.42,3.42,0,0,0,1.14.48v-2.59a1.86,1.86,0,0,0-1.15.42,1.14,1.14,0,0,0-.39.87A.93.93,0,0,0,305.67,408.83Zm2.89,3.52a1.07,1.07,0,0,0,.41-.87,1,1,0,0,0-.42-.84,4.14,4.14,0,0,0-1.22-.47v2.58A2.16,2.16,0,0,0,308.56,412.35Z"/><path class="cls-2" d="M298.4,312.45h2.51a.63.63,0,0,0,.62-.63.62.62,0,0,0-.62-.62H298.4a.64.64,0,0,0-.63.62.65.65,0,0,0,.63.63Z"/><path class="cls-2" d="M310.55,313.74a2.78,2.78,0,0,1-1.79.62v1.19h-.52v-1.18a4.78,4.78,0,0,1-1.42-.29,3,3,0,0,1-1.05-.65l.3-.59a3,3,0,0,0,.95.59,3.94,3.94,0,0,0,1.22.28V311a9.37,9.37,0,0,1-1.19-.38,2.11,2.11,0,0,1-.79-.59,1.58,1.58,0,0,1-.31-1,1.75,1.75,0,0,1,.58-1.34,2.79,2.79,0,0,1,1.71-.64v-1.19h.52V307a4.77,4.77,0,0,1,1.14.19,3.88,3.88,0,0,1,1,.45l-.26.62a3.73,3.73,0,0,0-.9-.43,3.9,3.9,0,0,0-.94-.18v2.75a10.4,10.4,0,0,1,1.25.37,2,2,0,0,1,.82.59,1.55,1.55,0,0,1,.33,1A1.72,1.72,0,0,1,310.55,313.74Zm-3.45-3.95a3.87,3.87,0,0,0,1.14.47v-2.58a1.86,1.86,0,0,0-1.15.42,1.11,1.11,0,0,0-.39.87A1,1,0,0,0,307.1,309.79Zm2.89,3.52a1.08,1.08,0,0,0,.42-.87.91.91,0,0,0-.43-.84,3.86,3.86,0,0,0-1.22-.48v2.59A2.18,2.18,0,0,0,310,313.31Z"/><circle class="cls-3" cx="258.83" cy="432.34" r="7.52" transform="translate(-221.3 585.28) rotate(-76.76)"/><path class="cls-2" d="M265.53,159.45H193.42a2.59,2.59,0,0,1-2.59-2.59h0a2.59,2.59,0,0,1,2.59-2.59h72.11a2.59,2.59,0,0,1,2.59,2.59h0A2.59,2.59,0,0,1,265.53,159.45Z"/><path class="cls-2" d="M298.61,132.47H226.5a2.58,2.58,0,0,1-2.58-2.59h0a2.58,2.58,0,0,1,2.58-2.59h72.11a2.59,2.59,0,0,1,2.59,2.59h0A2.59,2.59,0,0,1,298.61,132.47Z"/><path class="cls-9" d="M251.46,272.77H196a2.41,2.41,0,0,1-2.41-2.41h0A2.41,2.41,0,0,1,196,268h55.45a2.41,2.41,0,0,1,2.41,2.4h0A2.41,2.41,0,0,1,251.46,272.77Z"/><circle class="cls-2" cx="201.77" cy="130.01" r="12.43"/><circle class="cls-4" cx="201.77" cy="127.03" r="2.85"/><path class="cls-4" d="M195.42,135.83h12.69a6.36,6.36,0,0,0-6.42-4.78C196.76,131.05,195.42,135.83,195.42,135.83Z"/><g class="cls-8"><path d="M298.9,83.38h39.58a13.44,13.44,0,0,1,13.44,13.44v52.09a0,0,0,0,1,0,0H327.73a28.83,28.83,0,0,1-28.83-28.83V83.38A0,0,0,0,1,298.9,83.38Z" transform="translate(650.83 232.3) rotate(180)"/></g></g><g id="Icon"><rect class="cls-9" x="303.12" y="59.05" width="81.13" height="81.13" rx="9.95"/><path class="cls-4" d="M319.36,87.14V88.6a.65.65,0,0,0,.1.42.64.64,0,0,0,.54.23.58.58,0,0,0,.64-.66V87.14H321v1.45a1,1,0,0,1-.2.63,1,1,0,0,1-.76.33,1,1,0,0,1-.83-.38,1,1,0,0,1-.14-.59V87.14Z"/><path class="cls-4" d="M321.58,87.14H322l1.16,2v-2h.3V89.5h-.41l-1.2-2v2h-.3Z"/><path class="cls-4" d="M324.1,87.14h.32V89.5h-.32Z"/><path class="cls-4" d="M326,89.5h-.36l-.84-2.36h.37l.67,2,.7-2h.33Z"/><path class="cls-4" d="M327.14,87.14h1.48v.28h-1.15v.73h1.1v.28h-1.1v.78h1.18v.29h-1.51Z"/><path class="cls-4" d="M329.17,87.14H330a1.06,1.06,0,0,1,.54.11.56.56,0,0,1,.26.48.57.57,0,0,1-.17.42.55.55,0,0,1-.28.15c.23.06.33.16.36.45a3.83,3.83,0,0,0,.15.75h-.35a5.89,5.89,0,0,1-.11-.63c0-.34-.12-.44-.51-.44h-.41V89.5h-.33Zm.32,1H330a.81.81,0,0,0,.31-.05.33.33,0,0,0,.16-.3c0-.39-.34-.39-.47-.39h-.52Z"/><path class="cls-4" d="M331.59,88.81c0,.16,0,.46.57.46s.55-.3.55-.42-.21-.31-.54-.4a2,2,0,0,1-.64-.2.54.54,0,0,1-.24-.47c0-.48.45-.69.89-.69a1,1,0,0,1,.67.23.65.65,0,0,1,.14.41h-.34c0-.3-.26-.36-.5-.36s-.52.14-.52.38.14.28.43.35a2.18,2.18,0,0,1,.76.25.52.52,0,0,1,.23.47c0,.41-.32.73-.93.73a1,1,0,0,1-.73-.27.75.75,0,0,1-.14-.47Z"/><path class="cls-4" d="M333.54,87.14h.32V89.5h-.32Z"/><path class="cls-4" d="M334.44,87.14h.69a1.14,1.14,0,0,1,.95.31,1.38,1.38,0,0,1,.29.89,1.19,1.19,0,0,1-.4,1,1.22,1.22,0,0,1-.86.2h-.67Zm.33,2.09h.32a1,1,0,0,0,.62-.13.92.92,0,0,0,.31-.75,1.17,1.17,0,0,0-.23-.73.75.75,0,0,0-.63-.21h-.39Z"/><path class="cls-4" d="M337.47,87.14h.35l.95,2.36h-.35l-.26-.62h-1.09l-.26.62h-.33Zm-.3,1.48h.89l-.43-1.16Z"/><path class="cls-4" d="M339.09,87.14h.69a1.13,1.13,0,0,1,1,.31,1.33,1.33,0,0,1,.29.89,1.22,1.22,0,0,1-.39,1,1.26,1.26,0,0,1-.87.2h-.67Zm.33,2.09h.32a1,1,0,0,0,.62-.13.92.92,0,0,0,.31-.75,1.17,1.17,0,0,0-.23-.73.75.75,0,0,0-.63-.21h-.39Z"/><path class="cls-4" d="M341.41,87.14h1.48v.28h-1.15v.73h1.1v.28h-1.1v.78h1.18v.29h-1.51Z"/><path class="cls-4" d="M330.1,91.29c0-.09-.05-.41-.51-.41s-.66.58-.66,1,.12.93.66.93a.53.53,0,0,0,.38-.14.49.49,0,0,0,.12-.25h.36a.8.8,0,0,1-.88.65c-.83,0-1-.73-1-1.19s.19-1.23,1-1.23a.75.75,0,0,1,.84.67Z"/><path class="cls-4" d="M331.6,90.65H332L332.9,93h-.36l-.25-.62h-1.1l-.25.62h-.34Zm-.3,1.48h.89L331.76,91Z"/><path class="cls-4" d="M333.24,90.65h.84a.77.77,0,0,1,.6.17.58.58,0,0,1,.17.42.55.55,0,0,1-.4.54.56.56,0,0,1,.47.58.64.64,0,0,1-.29.54.88.88,0,0,1-.53.11h-.86Zm.32,1H334c.11,0,.49,0,.49-.38s-.3-.35-.48-.35h-.47Zm0,1.09h.56c.26,0,.46-.13.46-.41a.4.4,0,0,0-.45-.4h-.57Z"/><path class="cls-4" d="M335.61,90.9a1.05,1.05,0,0,1,.78-.31c.66,0,1.07.42,1.07,1.22,0,.62-.25,1.25-1.09,1.25s-1.07-.57-1.07-1.22A1.39,1.39,0,0,1,335.61,90.9Zm.24,1.67a.66.66,0,0,0,.53.22.67.67,0,0,0,.52-.22,1.32,1.32,0,0,0,.21-.77c0-.53-.17-.94-.71-.94s-.75.48-.75,1A1.2,1.2,0,0,0,335.85,92.57Z"/><path class="cls-4" d="M339.48,93h-.36l-.84-2.36h.36l.67,2,.71-2h.32Z"/><path class="cls-4" d="M340.66,90.65h1.48v.28H341v.73h1.09v.28H341v.78h1.17V93h-1.5Z"/><path class="cls-4" d="M342.69,90.65h.84a1,1,0,0,1,.54.11.54.54,0,0,1,.26.48.61.61,0,0,1-.16.42.64.64,0,0,1-.28.15c.22.06.32.16.36.46a3.12,3.12,0,0,0,.14.74h-.34a3.19,3.19,0,0,1-.11-.63c0-.34-.12-.44-.52-.44H343V93h-.32Zm.31,1h.52a.67.67,0,0,0,.31-.06.31.31,0,0,0,.16-.3c0-.39-.34-.39-.47-.39H343Z"/><path class="cls-4" d="M344.87,90.65h.68a1.12,1.12,0,0,1,.95.31,1.34,1.34,0,0,1,.29.89,1.19,1.19,0,0,1-.39,1,1.24,1.24,0,0,1-.87.2h-.66Zm.33,2.09h.32a1,1,0,0,0,.61-.13.91.91,0,0,0,.32-.75,1.17,1.17,0,0,0-.23-.73.75.75,0,0,0-.63-.21h-.39Z"/><path class="cls-4" d="M347.19,90.65h1.48v.28h-1.15v.73h1.09v.28h-1.09v.78h1.18V93h-1.51Z"/><path class="cls-4" d="M322.54,95.07v8.74a11.36,11.36,0,0,0,.09,1.41,2.7,2.7,0,0,0,.57,1.34,2.79,2.79,0,0,0,.94.76,3.27,3.27,0,0,0,1.4.27,3.22,3.22,0,0,0,1.39-.27,2.73,2.73,0,0,0,.95-.76,2.7,2.7,0,0,0,.57-1.34,13.63,13.63,0,0,0,.08-1.41V95.07H332v8.81a13.6,13.6,0,0,1-.24,2.58,4.89,4.89,0,0,1-1.37,2.41,5.58,5.58,0,0,1-1.3,1,6.49,6.49,0,0,1-1.37.56,8.08,8.08,0,0,1-1.28.26,8.28,8.28,0,0,1-1,.07,7.13,7.13,0,0,1-.91-.07,8.36,8.36,0,0,1-1.24-.26,6.21,6.21,0,0,1-1.36-.56,6.08,6.08,0,0,1-1.31-1,4.83,4.83,0,0,1-1.38-2.41,13.6,13.6,0,0,1-.24-2.58V95.07Z"/><path class="cls-4" d="M335.62,95.07h3.51v1.48a7,7,0,0,1,1.48-1.21,4.94,4.94,0,0,1,2.68-.62,5.67,5.67,0,0,1,2.77.62,5.09,5.09,0,0,1,1.71,1.45,4.78,4.78,0,0,1,.79,2.15,18.88,18.88,0,0,1,.14,2.08v9.7h-3.52v-8.84c0-.36,0-.78,0-1.24a3.84,3.84,0,0,0-.29-1.3,2.37,2.37,0,0,0-.85-1,2.87,2.87,0,0,0-1.65-.41,3,3,0,0,0-1.79.47,2.76,2.76,0,0,0-1,1.22,5.76,5.76,0,0,0-.4,1.67c0,.61-.08,1.21-.08,1.8v7.67h-3.51Z"/><path class="cls-4" d="M355.75,95.07v15.65h-3.51V95.07Z"/><path class="cls-4" d="M363.55,101.7a3.72,3.72,0,0,0-1.35,1.38,3.63,3.63,0,0,0-.49,1.79,3.35,3.35,0,0,0,.23,1.19,3.11,3.11,0,0,0,.66,1,3.37,3.37,0,0,0,1.11.74,3.75,3.75,0,0,0,1.52.29,4,4,0,0,0,1.35-.23,3.21,3.21,0,0,0,1.11-.63,3,3,0,0,0,.77-1,3.17,3.17,0,0,0,.28-1.37,3.35,3.35,0,0,0-.22-1.27,4.43,4.43,0,0,0-.53-.94,4.13,4.13,0,0,0-.62-.63l-.49-.36h3.32a5.6,5.6,0,0,1,.66,1.61,7.43,7.43,0,0,1,.16,1.41,7.22,7.22,0,0,1-.41,2.51,5.36,5.36,0,0,1-1.28,2,4.77,4.77,0,0,1-1.88,1.21,6.67,6.67,0,0,1-2.17.35,5.92,5.92,0,0,1-2.63-.53,6.26,6.26,0,0,1-1.73-1.25,5.08,5.08,0,0,1-1.15-1.87,7.12,7.12,0,0,1-.33-2.24,6.65,6.65,0,0,1,.23-1.9,6,6,0,0,1,.56-1.27Z"/><path class="cls-4" d="M359.34,97.9l6.23-2.8-6.23-2.8V89.43L371,95.1l-11.68,5.67Z"/><path class="cls-4" d="M350.54,89.92a3.48,3.48,0,1,1,1,2.43A3.32,3.32,0,0,1,350.54,89.92Z"/></g><g id="Speech_Bubble" data-name="Speech Bubble"><g id="freepik--speech-bubble--inject-2"><path class="cls-4" d="M88.94,191.85,81.66,191a28,28,0,1,1,7.21-7h0Z"/><path class="cls-5" d="M88.94,191.85v-2.06c0-1.34-.06-3.3-.11-5.8l.17.07h0a.11.11,0,0,1-.14,0h0a.15.15,0,0,1,0-.13,27.66,27.66,0,0,0,4.91-12.45,28.37,28.37,0,0,0-.23-8.82,27.82,27.82,0,0,0-3.61-9.33c-1.24-2.43-3.34-4.72-7.55-8.08a27,27,0,0,0-11-4.73,28.26,28.26,0,0,0-12.67.54,27.2,27.2,0,0,0-11.55,6.61,28.11,28.11,0,0,0-4.41,5.26c-.56,1-1.1,1.95-1.63,2.95l-.66,1.55-.32.76-.26.79a28.45,28.45,0,0,0-1.1,12.76A27.16,27.16,0,0,0,43.14,183a27.82,27.82,0,0,0,17.11,11.88l2.31.4c.76.12,1.52.13,2.2.21a25.48,25.48,0,0,0,4.28-.09A27.87,27.87,0,0,0,81.63,191h.06l5.37.71,1.41.2.5.07H88.5l-1.39-.14-5.44-.59h.07a27.78,27.78,0,0,1-12.67,4.61,23.18,23.18,0,0,1-4.33.11c-.75-.06-1.51-.07-2.28-.18l-2.35-.4a28.38,28.38,0,0,1-9.41-4,29,29,0,0,1-8-8.13,27.5,27.5,0,0,1-4.41-11.43,28.88,28.88,0,0,1,1.1-13l.26-.81.33-.78c.23-.52.45-1.1.67-1.57.5-1,1.1-2,1.65-3a29,29,0,0,1,4.41-5.35,27.56,27.56,0,0,1,11.75-6.68,28.74,28.74,0,0,1,13-.58,27.52,27.52,0,0,1,11.13,4.83,28.7,28.7,0,0,1,7.6,8.23,28.34,28.34,0,0,1,3.63,9.48,28.83,28.83,0,0,1,.18,8.94,27.92,27.92,0,0,1-5,12.53l-.16-.13h0a.1.1,0,0,1,.14,0h0a.09.09,0,0,1,0,.07v7.37C89,191.76,88.94,191.85,88.94,191.85Z"/><polygon class="cls-11" points="53.81 169.42 57.3 165.67 64.51 171.65 77.79 157.98 81.27 161.48 64.23 178.66 53.81 169.42"/></g></g><g id="Character"><rect class="cls-12" x="79.16" y="421.52" width="87.87" height="6.1"/><polygon class="cls-12" points="170.38 382.51 176.68 460.96 170.38 460.96 161.26 382.51 170.38 382.51"/><path class="cls-6" d="M183.63,279.06c-7.34-9.39-18.44-13.93-29.3-16.78a139.11,139.11,0,0,0-31-4.45v-.07l-1.32,0-1.32,0v.07a139.2,139.2,0,0,0-31,4.45c-10.86,2.85-22,7.39-29.3,16.78-9.62,12.32-16,34.41-11.77,50s9.93,33.3,18.57,46.49l54.8-8.34,57.52,8.34c2.49-3.36,8.65-33.66,12.9-49.29S193.25,291.38,183.63,279.06Z"/><path class="cls-6" d="M172.45,382.51H73.7a9.13,9.13,0,0,1-9.13-9.13h0a9.13,9.13,0,0,1,9.13-9.13h98.75a9.13,9.13,0,0,1,9.13,9.13h0A9.13,9.13,0,0,1,172.45,382.51Z"/><path class="cls-5" d="M173.87,364.42c0,.14-22.55.26-50.38.26s-50.38-.12-50.38-.26,22.55-.26,50.38-.26S173.87,364.27,173.87,364.42Z"/><polygon class="cls-12" points="77.64 382.51 71.34 460.96 77.64 460.96 86.76 382.51 77.64 382.51"/><path class="cls-5" d="M79.21,281.65s-.54.45-1.52,1.24a38.83,38.83,0,0,0-3.91,3.64,36,36,0,0,0-9,32.56,38.19,38.19,0,0,0,1.48,5.13,18.79,18.79,0,0,1,.66,1.85,2.38,2.38,0,0,1-.25-.45c-.14-.3-.37-.74-.6-1.33a31.93,31.93,0,0,1-1.65-5.12,35.32,35.32,0,0,1,9.14-32.9,32.22,32.22,0,0,1,4-3.54c.5-.39.93-.64,1.2-.83S79.2,281.63,79.21,281.65Z"/><path class="cls-5" d="M81.27,365.72a2.82,2.82,0,0,1-.21-.57c-.12-.44-.28-1-.48-1.67l-1.7-6.15c-1.43-5.2-3.39-12.38-5.93-20.19a36.83,36.83,0,0,0-2.2-5.53,13.83,13.83,0,0,0-3.28-4.36,8.58,8.58,0,0,0-4.44-2,11,11,0,0,0-4.27.41A25.9,25.9,0,0,0,53,328.33l-1.48.89a2.06,2.06,0,0,1-.54.29,3.43,3.43,0,0,1,.48-.37c.32-.24.8-.57,1.44-1a23.79,23.79,0,0,1,5.74-2.82,11.28,11.28,0,0,1,4.43-.49,9,9,0,0,1,4.7,2,14.57,14.57,0,0,1,3.43,4.49A37,37,0,0,1,73.44,337c2.55,7.83,4.45,15,5.8,20.25.63,2.57,1.16,4.67,1.54,6.2.15.69.28,1.25.39,1.69A3.61,3.61,0,0,1,81.27,365.72Z"/><path class="cls-5" d="M161.13,281.31a2.73,2.73,0,0,1,.45.23c.29.17.73.4,1.26.75a33.18,33.18,0,0,1,4.26,3.29,35.27,35.27,0,0,1,11.13,32.28,32.77,32.77,0,0,1-1.33,5.21c-.2.61-.4,1.06-.52,1.37a2.6,2.6,0,0,1-.22.46,14.07,14.07,0,0,1,.55-1.89,38.92,38.92,0,0,0,1.15-5.21,36,36,0,0,0-11-31.95,38.09,38.09,0,0,0-4.13-3.39A15.86,15.86,0,0,1,161.13,281.31Z"/><path class="cls-5" d="M164.23,365.35a2.26,2.26,0,0,1,.06-.6c.08-.45.17-1,.29-1.71.28-1.55.67-3.68,1.15-6.28,1-5.29,2.49-12.6,4.55-20.57a37.09,37.09,0,0,1,1.88-5.74,14.44,14.44,0,0,1,3.15-4.69,8.92,8.92,0,0,1,4.56-2.31,11.31,11.31,0,0,1,4.46.21,23.6,23.6,0,0,1,5.9,2.47c.66.37,1.16.67,1.5.88a3.07,3.07,0,0,1,.5.35,2.12,2.12,0,0,1-.55-.26l-1.54-.79a25.7,25.7,0,0,0-5.9-2.29,11.1,11.1,0,0,0-4.29-.15,8.57,8.57,0,0,0-4.31,2.24,13.9,13.9,0,0,0-3,4.55,37.15,37.15,0,0,0-1.85,5.66c-2.06,7.95-3.57,15.24-4.68,20.51-.55,2.59-1,4.7-1.32,6.24l-.39,1.7A3.87,3.87,0,0,1,164.23,365.35Z"/><path class="cls-9" d="M156.63,249.66s-23.72-8.94-24.37-8.95-21.13.19-21.77,0S86,252,86,252l1,35.19,6.65,22.17-1,12.77,17.08,1.25,42.93-4.41s-2.26-10.1-2.43-10.58S156.63,249.66,156.63,249.66Z"/><path class="cls-5" d="M136.08,249.59a4.54,4.54,0,0,1-.93.54,12.2,12.2,0,0,1-1.16.53c-.45.18-1,.42-1.56.6a27.12,27.12,0,0,1-4.24,1.08,30.88,30.88,0,0,1-5.35.42,32.21,32.21,0,0,1-5.33-.55,27.79,27.79,0,0,1-4.21-1.2c-.59-.2-1.1-.44-1.55-.64a11.09,11.09,0,0,1-1.14-.56,3.93,3.93,0,0,1-.92-.57c0-.08,1.4.64,3.73,1.42a29.36,29.36,0,0,0,4.18,1.07,33.74,33.74,0,0,0,5.25.51,34.64,34.64,0,0,0,5.26-.37,31.89,31.89,0,0,0,4.2-1C134.66,250.19,136,249.5,136.08,249.59Z"/><path class="cls-5" d="M173.39,395.77l10.38,24.12,13.71,16.71a2.68,2.68,0,0,1-.52,3.89h0a2.69,2.69,0,0,1-2.44.36C189.28,439,170,432.2,169.37,430.4c-.77-2.1-12.64-24.72-12.64-24.72Z"/><path class="cls-2" d="M197,440.49l-28.33-11.7.46,1a4,4,0,0,0,2,2c2.33,1.09,8.83,4,23.39,9.1a2.69,2.69,0,0,0,2.51-.39Z"/><g class="cls-13"><path class="cls-4" d="M170.72,421.57a1.62,1.62,0,0,1,1.29,1.74,1.48,1.48,0,0,1-2.48.89,1.59,1.59,0,0,1,.59-2.62,1.07,1.07,0,0,1,.75,0"/></g><path class="cls-4" d="M185.54,431.52a5.86,5.86,0,0,1,4.6-3.75c0-.06-.36-.19-1-.13a4.13,4.13,0,0,0-2.2.93,4.21,4.21,0,0,0-1.35,2C185.43,431.13,185.48,431.52,185.54,431.52Z"/><path class="cls-4" d="M189,434.35c.16,0,.58-1.08,1.65-2s2.22-1.2,2.19-1.37a3.79,3.79,0,0,0-3.84,3.37Z"/><path class="cls-4" d="M181,429a26.74,26.74,0,0,1,2.88-2.76,26.65,26.65,0,0,1,3.56-1.83A7.37,7.37,0,0,0,181,429Z"/><path class="cls-4" d="M178.6,424.6c.13.11,1.2-1.05,2.89-1.89s3.23-1.06,3.22-1.23a5.16,5.16,0,0,0-3.48.71A5.24,5.24,0,0,0,178.6,424.6Z"/><path class="cls-5" d="M93.14,314.54S78.46,336,79.18,347,84,364.59,84,364.59h20.7s15.26-19.25,15.26-19c0,0,40.68,75.28,40.92,74.79s23.85-9.24,23.13-9.24-27.37-73.8-37.2-89.37c-9.49-15-18.53-9.14-25.75-7.22L110.7,320.8Z"/><path class="cls-5" d="M151.85,318.15c.72,0,17.33,19,16.36,29.6s-8.16,19.49-8.16,19.49l-23.49,6.08s-9.43,78.95-8.37,79l-27-.35s4.2-78,3.72-86.91,4.48-19.09,15-19.44l18.14-29.94Z"/><path class="cls-6" d="M143.3,318.88s.15.09.42.29.66.51,1.16.94a33.22,33.22,0,0,1,4.1,4.08,20.18,20.18,0,0,1,2.37,3.47c.17.34.33.71.5,1.08s.27.77.41,1.17c.27.78.52,1.6.84,2.44,1.24,3.37,2.74,7.19,4.38,11.43,6.63,17,16.05,40.54,26.76,67.25l.1.25-.25.09-16.67,6.43-6.64,2.56-.21.08-.11-.2c-16.47-30.2-31-56.91-40.66-74.58l.14.08a12.6,12.6,0,0,0-5.88,1.19,12.28,12.28,0,0,0-4.13,3.37,21.85,21.85,0,0,0-3.75,7.64,35.78,35.78,0,0,0-1.07,5.24c-.07.59-.12,1.05-.16,1.37s0,.47,0,.47a4.15,4.15,0,0,1,0-.47c0-.31,0-.77.11-1.38a32.82,32.82,0,0,1,1-5.28,21.75,21.75,0,0,1,3.72-7.75,12.64,12.64,0,0,1,4.2-3.48,12.93,12.93,0,0,1,6-1.25h.1l0,.08L160.91,420l-.32-.11,6.65-2.57,16.67-6.42-.15.34c-10.69-26.73-20-50.34-26.6-67.33-1.62-4.25-3.1-8.07-4.31-11.46-.32-.84-.56-1.68-.83-2.47-.14-.39-.25-.77-.39-1.15s-.31-.72-.48-1.05a19.82,19.82,0,0,0-2.32-3.46,35.09,35.09,0,0,0-4-4.13c-.49-.44-.87-.76-1.13-1Z"/><path class="cls-5" d="M107.54,432.08l-1.47,26.22-7.14,20.39a2.68,2.68,0,0,0,1.82,3.48h0a2.65,2.65,0,0,0,2.41-.5c4.3-3.51,20-16.52,20-18.45,0-2.22,3.39-27.54,3.39-27.54Z"/><path class="cls-2" d="M100.75,482.17l22.59-20.71-.08,1.11a4.06,4.06,0,0,1-1.17,2.54c-1.82,1.82-6.94,6.74-18.85,16.57a2.67,2.67,0,0,1-2.49.49Z"/><path class="cls-4" d="M108.4,469.83a8.27,8.27,0,0,0-2.54-1.74,8.27,8.27,0,0,0-3.07-.2c0-.06.27-.31.87-.47a4.31,4.31,0,0,1,4.34,1.51C108.37,469.42,108.46,469.8,108.4,469.83Z"/><path class="cls-4" d="M106.1,473.68c-.13.1-.9-.82-2.22-1.31a23.45,23.45,0,0,0-2.53-.54,3,3,0,0,1,2.73,0C105.59,472.4,106.25,473.62,106.1,473.68Z"/><path class="cls-4" d="M111.77,465.91a26,26,0,0,0-3.66-1.61c-2.12-.6-4-.32-4-.5a7.35,7.35,0,0,1,7.63,2.11Z"/><path class="cls-4" d="M112.54,460.94c-.09.16-1.48-.56-3.36-.78s-3.4.12-3.45-.05a6.72,6.72,0,0,1,6.81.83Z"/><path class="cls-6" d="M128.24,452.12c0,.15-6.06.26-13.55.26s-13.54-.11-13.54-.26,6.06-.26,13.54-.26S128.24,452,128.24,452.12Z"/><path class="cls-6" d="M103.11,321.6a28.92,28.92,0,0,1-2.62,2,70.14,70.14,0,0,0-6.08,5,72,72,0,0,0-5.48,5.63,25.66,25.66,0,0,1-2.17,2.44,3.05,3.05,0,0,1,.45-.75c.32-.47.81-1.13,1.44-1.93a53.18,53.18,0,0,1,5.41-5.78,52,52,0,0,1,6.22-4.89c.84-.56,1.54-1,2-1.26A3,3,0,0,1,103.11,321.6Z"/><g class="cls-7"><path d="M131.18,291.91c-4.17,2-8.94,3.19-13.5,2.32-5.92-1.14-9.87-5.94-13.57-10.69l2.85,5.85c3.31,5.3,6.47,10.82,11,15.78a12.89,12.89,0,0,0,5.84,3.43c2.52.67,5.23-.54,7.12-2.35,6.15-5.85,8.73-14.76,11.78-22.22A65.3,65.3,0,0,1,131.18,291.91Z"/></g><path class="cls-9" d="M86,252c-.81-.07-20.11,11-1.41,42.07,16.62,27.62,24.13,31.49,31,32.22s9.35-5.39,8-8.69-21.68-36.3-21.09-36.89C102.57,280.66,90.22,252.31,86,252Z"/><path class="cls-9" d="M156.63,249.66c.48.16,10.69,4.86,9.4,15.56s-14.61,55.6-17.19,57.87-6,1.62-9.65.65a9,9,0,0,1-6.64-8.1c-.24-3.9,15-42.64,15.16-43.12S156.63,249.66,156.63,249.66Z"/><rect class="cls-5" x="119.88" y="276" width="20.16" height="37.81" rx="2.98"/><g class="cls-7"><path d="M119.11,311l-8.82-3.19a14.86,14.86,0,0,0-1.77,6.68,8.76,8.76,0,0,0,2.51,6.3,9.38,9.38,0,0,0,6.8,2.26,5.44,5.44,0,0,0,3.23-1,5,5,0,0,0,1.62-3.69A8.76,8.76,0,0,0,119.11,311Z"/></g><path class="cls-12" d="M109.4,314.85a83.76,83.76,0,0,1,1.92-10c1-3,11.77-12,13.36-12.31s1.58.64,1.26,1.84-8.38,9.65-7.59,10.15c1.18.76.77,1.5,1.44,1.12s12.07-7,14.15-7.43,2.31,1,1.2,2.56L134,302.3a2.13,2.13,0,0,1,2.54.56c1.29,1.27-4.06,4.87-4.06,4.87s.48,1-.8,2.64-6.16,8.48-7.59,9.47-4.24.36-4.24.36a7.44,7.44,0,0,1-3.6,1.44C114.43,321.72,109.07,317.22,109.4,314.85Z"/><g class="cls-7"><path d="M147.18,310.81,133,315.9a25.48,25.48,0,0,0,4.17,3.53,9.14,9.14,0,0,0,5.17,1.55,5.58,5.58,0,0,0,4.58-2.56,9.14,9.14,0,0,0,.94-4A5.07,5.07,0,0,0,147.18,310.81Z"/></g><path class="cls-12" d="M129.46,292.48c.32,0,10.31,2.3,11.43,3.34s5.76,10.31,5.76,10.31,1.91,1.52,2.15,3.2-.72,9.59-4.47,9.59c-.4,0-6.58-.32-7.57-.56s-7.3-5-7.3-5l1.25-1.68s-7.08-3.79-8.52-4.64-2.1-3.26-.64-3.25,14.38,4.88,14.38,4.88-12.45-5.83-12.86-7.51a2.24,2.24,0,0,1,2.87-2.48c1.28.56,10.71,5.35,12.23,5.43s1.68-.71,1.68-.71l-3.09-4.16s-7.3-3.6-7.94-4.48S129.46,292.48,129.46,292.48Z"/><path class="cls-14" d="M129.46,292.48s-.17.21-.42.66a2.51,2.51,0,0,0-.32.87,1.13,1.13,0,0,0,.06.57,1.29,1.29,0,0,0,.46.47,74.57,74.57,0,0,0,7.59,4.08l0,0,0,0,3.11,4.14,0,.07,0,.07a1.56,1.56,0,0,1-1.59.87,5.42,5.42,0,0,1-1.79-.45c-1.14-.44-2.29-1-3.48-1.5l-3.66-1.72c-1.24-.58-2.56-1.28-3.84-1.81a2.12,2.12,0,0,0-2.35,1.46,1.45,1.45,0,0,0,0,.95,6.8,6.8,0,0,0,1.72,1.41c.65.43,1.34.84,2,1.24,2.8,1.58,5.81,3.08,8.93,4.56l-.19.47c-2.59-1-5.28-1.95-8-2.92-1.38-.48-2.79-1-4.21-1.41a11.09,11.09,0,0,0-2.1-.52c-.62,0-.6.82-.31,1.44a3.14,3.14,0,0,0,.81,1.09,9.49,9.49,0,0,0,1.23.72l2.57,1.4,5,2.74.26.15-.18.23-1.24,1.68-.06-.36q1.81,1.36,3.62,2.65c.6.43,1.2.85,1.8,1.25a12.19,12.19,0,0,0,1.79,1.05c1.35.22,2.8.28,4.17.39l2.06.12a7.23,7.23,0,0,0,1.93,0,3.33,3.33,0,0,0,1.48-1.07,7.52,7.52,0,0,0,.94-1.63,15.13,15.13,0,0,0,1-3.56,15.64,15.64,0,0,0,.2-1.78,4.19,4.19,0,0,0-.12-1.67,6.38,6.38,0,0,0-2-2.59l0,0,0,0c-1.64-3.27-3.15-6.22-4.62-8.73a6.42,6.42,0,0,0-1.19-1.65,9,9,0,0,0-1.75-.76c-1.18-.41-2.28-.72-3.26-1-2-.56-3.53-.95-4.58-1.21l-1.61-.39a1.68,1.68,0,0,1,.42,0c.28,0,.68.12,1.21.23,1.06.23,2.62.58,4.61,1.11,1,.26,2.1.56,3.29,1a8.91,8.91,0,0,1,1.84.77,6.85,6.85,0,0,1,1.29,1.73c1.5,2.51,3,5.45,4.7,8.72l0-.07a6.85,6.85,0,0,1,2.1,2.76,5,5,0,0,1,.16,1.83c0,.61-.11,1.22-.2,1.83a16,16,0,0,1-1,3.67,8,8,0,0,1-1,1.74,3.74,3.74,0,0,1-1.7,1.22,6.79,6.79,0,0,1-2.1.07L141,319c-1.4-.1-2.77-.14-4.26-.38a10.37,10.37,0,0,1-1.94-1.12c-.61-.4-1.22-.82-1.82-1.25q-1.81-1.29-3.63-2.65l-.21-.15.16-.21,1.24-1.67.09.38-5-2.75-2.57-1.4a8.13,8.13,0,0,1-1.3-.78,3.51,3.51,0,0,1-1-1.27,2.32,2.32,0,0,1-.24-1.24,1.09,1.09,0,0,1,.31-.67,1,1,0,0,1,.69-.26,11.44,11.44,0,0,1,2.27.54c1.44.45,2.84.94,4.23,1.42q4.15,1.47,8,2.93l-.19.47c-3.14-1.5-6.14-3-9-4.61-.71-.4-1.39-.81-2.06-1.25a7.44,7.44,0,0,1-1.86-1.57,2.11,2.11,0,0,1,.55-2.37,2.5,2.5,0,0,1,2.26-.71c1.44.6,2.64,1.26,3.91,1.86l3.65,1.74c1.18.55,2.33,1.08,3.45,1.51a4.89,4.89,0,0,0,1.64.44c.53,0,1.13-.18,1.27-.58l0,.14-3.07-4.18,0,.05a66.73,66.73,0,0,1-7.55-4.22,1.34,1.34,0,0,1-.49-.54,1.19,1.19,0,0,1-.06-.64,2.65,2.65,0,0,1,.37-.89A3,3,0,0,1,129.46,292.48Z"/><path class="cls-5" d="M114.49,300.75a5.76,5.76,0,0,1-.81-.94c-.5-.63-1.18-1.56-2-2.75-1.6-2.36-3.64-5.73-5.79-9.51s-4-7.24-5.41-9.73l-1.63-2.95a4.51,4.51,0,0,1-.55-1.11,5.91,5.91,0,0,1,.72,1c.44.67,1,1.65,1.78,2.87,1.46,2.45,3.39,5.88,5.54,9.65s4.13,7.17,5.65,9.57c.76,1.21,1.39,2.17,1.83,2.83A5.33,5.33,0,0,1,114.49,300.75Z"/><path class="cls-5" d="M110.81,304.56c0,.08-.74.34-1.83,1a10.84,10.84,0,0,0-3.49,3.46,9.1,9.1,0,0,0-1,2.49c-.21.81-.24,1.58-.37,2.24-.21,1.35-.93,2-1,1.89a5.49,5.49,0,0,0,.59-1.95,22,22,0,0,1,.27-2.29,8.33,8.33,0,0,1,1.08-2.65,9.76,9.76,0,0,1,3.75-3.51A5,5,0,0,1,110.81,304.56Z"/><path class="cls-5" d="M161.25,256.65a13.8,13.8,0,0,1-2,2c-1.32,1.15-3.21,2.67-5.38,4.23s-4.21,2.86-5.72,3.75a13.65,13.65,0,0,1-2.52,1.31,18,18,0,0,1,2.32-1.62c1.46-1,3.46-2.31,5.62-3.86s4.07-3,5.44-4.1A17.47,17.47,0,0,1,161.25,256.65Z"/><path class="cls-5" d="M147,272.14a13.84,13.84,0,0,1-.64,2.75c-.48,1.68-1.23,4-2.19,6.45s-1.95,4.67-2.72,6.24A13.6,13.6,0,0,1,140,290a17.71,17.71,0,0,1,1-2.62c.68-1.59,1.61-3.8,2.56-6.27s1.76-4.73,2.32-6.37A17.44,17.44,0,0,1,147,272.14Z"/><path class="cls-5" d="M154.67,306.62c-.09,0-.32-.95-1.16-2.3a14.72,14.72,0,0,0-4.35-4.33,33,33,0,0,0-5.54-2.85,15.94,15.94,0,0,1-2.38-1.06,10.39,10.39,0,0,1,2.51.72,25.49,25.49,0,0,1,5.7,2.76,13.49,13.49,0,0,1,4.38,4.57,8.63,8.63,0,0,1,.74,1.79C154.68,306.36,154.71,306.61,154.67,306.62Z"/><path class="cls-5" d="M103.83,320a13.35,13.35,0,0,1-2.12-1.79,59.25,59.25,0,0,1-4.6-4.87,64.23,64.23,0,0,1-4-5.33,12.38,12.38,0,0,1-1.41-2.39,17.87,17.87,0,0,1,1.71,2.17c1,1.37,2.47,3.23,4.15,5.22s3.28,3.71,4.46,4.94A17.26,17.26,0,0,1,103.83,320Z"/><path class="cls-5" d="M96.26,270.1c0-.05.45.08,1,.48a6.42,6.42,0,0,1,1.83,2,6.35,6.35,0,0,1,.83,2.61c0,.71,0,1.13-.11,1.13a14.56,14.56,0,0,0-1.17-3.48A14.42,14.42,0,0,0,96.26,270.1Z"/><path class="cls-5" d="M100.77,190.66a28,28,0,0,1,21-9.88c4.8-.13,5-.08,8.44.74s8.43,3.34,10.53,6c2.48,3.17,4.58,6.72,5.08,10.6s2,7.6,2.61,12.58c.51,4,3.93,22.1,1.4,25.37l-15.34,2.69c-6.12.25-12.52,1.22-18.5,0s-19.77,2.08-23-2.69C88.51,229.46,90.15,203.06,100.77,190.66Z"/><path class="cls-12" d="M112.13,191.31l14.69-6,3.85.41c8.67-.06,14.75,9.44,14.88,16.46.14,7.79,0,17.32-1.17,23.08-2.37,11.58-12.22,12.65-12.22,12.65s.1,1.85.21,5.73h0c-2.61,5.95-12.52,5.92-21.06-.77l-.3-.46-2.73-47.08A4.11,4.11,0,0,1,112.13,191.31Z"/><path class="cls-5" d="M140.4,211.88a1.5,1.5,0,0,1-1.51,1.44,1.42,1.42,0,0,1-1.48-1.41,1.49,1.49,0,0,1,1.5-1.45A1.44,1.44,0,0,1,140.4,211.88Z"/><path class="cls-5" d="M143,206.57c-.2.19-1.29-.7-2.9-.77s-2.83.69-3,.48.13-.43.66-.78a4.08,4.08,0,0,1,2.4-.63,3.93,3.93,0,0,1,2.3.86C142.89,206.13,143,206.49,143,206.57Z"/><path class="cls-5" d="M132.74,218.81a10.75,10.75,0,0,1,2.63-.36c.42,0,.81-.08.89-.36a2.07,2.07,0,0,0-.22-1.23c-.34-1-.7-2.08-1.08-3.19-1.49-4.53-2.55-8.25-2.36-8.31s1.54,3.57,3,8.1c.35,1.12.7,2.19,1,3.2a2.36,2.36,0,0,1,.14,1.63,1,1,0,0,1-.7.57,2.58,2.58,0,0,1-.7.06A10.42,10.42,0,0,1,132.74,218.81Z"/><path class="cls-14" d="M132.18,237.88A29.78,29.78,0,0,1,116.74,233s3.8,8.27,15.52,7.69Z"/><path class="cls-5" d="M142.34,203.7c-.29.38-1.51.06-3,.12s-2.65.38-2.95,0c-.14-.18,0-.55.55-.93a4.61,4.61,0,0,1,4.77-.11C142.28,203.14,142.47,203.51,142.34,203.7Z"/><path class="cls-5" d="M123.64,212.05a1.5,1.5,0,0,0,1.44,1.53,1.43,1.43,0,0,0,1.55-1.34,1.51,1.51,0,0,0-1.43-1.53A1.44,1.44,0,0,0,123.64,212.05Z"/><path class="cls-5" d="M121.16,206.49c.19.19,1.33-.64,2.94-.62s2.79.83,3,.63-.1-.44-.61-.82a4.06,4.06,0,0,0-2.37-.75,3.94,3.94,0,0,0-2.34.74C121.24,206.05,121.07,206.4,121.16,206.49Z"/><path class="cls-5" d="M122.08,200.52c.31.37,1.56,0,3,0s2.76.27,3.06-.11c.13-.19-.07-.56-.62-.91a4.62,4.62,0,0,0-2.48-.62,4.68,4.68,0,0,0-2.45.72C122.11,200,121.94,200.34,122.08,200.52Z"/><path class="cls-12" d="M110.49,214.88c0-.87-.88-3-1.73-3.13-2.28-.46-6.42-.46-6.71,5.36-.41,7.95,8.13,6.81,8.15,6.58S110.36,217.88,110.49,214.88Z"/><path class="cls-14" d="M107.69,220.58s-.15.09-.38.19a1.4,1.4,0,0,1-1,0c-.83-.35-1.47-1.72-1.43-3.15a4.58,4.58,0,0,1,.49-2,1.64,1.64,0,0,1,1.09-1,.71.71,0,0,1,.8.43c.1.22,0,.38.08.4s.18-.13.13-.46a.89.89,0,0,0-.29-.52,1.09,1.09,0,0,0-.75-.24,1.94,1.94,0,0,0-1.51,1.16,4.73,4.73,0,0,0-.6,2.19c0,1.61.72,3.15,1.85,3.54a1.49,1.49,0,0,0,1.28-.14C107.66,220.77,107.71,220.6,107.69,220.58Z"/><path class="cls-14" d="M131.62,223.33a2.53,2.53,0,1,1-2.53-2.54A2.53,2.53,0,0,1,131.62,223.33Z"/><path class="cls-5" d="M132.43,224c0,.13-.39.4-1.18.48a5.75,5.75,0,0,1-3-.57,5.07,5.07,0,0,1-2.27-2c-.38-.71-.37-1.23-.25-1.26s.39.34.85.83a7.21,7.21,0,0,0,2.12,1.54C130.6,224,132.37,223.77,132.43,224Z"/><path class="cls-5" d="M148.75,200.35a19.47,19.47,0,0,0-8.13-13.59,24.94,24.94,0,0,0-16.69-4.38l-9.84,5.31c-2.06,6.31,0,9.18,2.86,18.36a82.49,82.49,0,0,1,15.44-2.8c-.5-2.1-1-4.19-1.49-6.29l3.78,5.47a5.15,5.15,0,0,0,2.32-6.21,19.28,19.28,0,0,1,1.77,5.69A61.88,61.88,0,0,0,148.75,200.35Z"/><path class="cls-5" d="M108.76,211.75s1,4.35,1.7,3.68a14.39,14.39,0,0,0,3.37-16.56l.2-9.5-8,2.69Z"/><path class="cls-6" d="M107.14,211.59a2.89,2.89,0,0,1-.41-.82,19.38,19.38,0,0,1-.79-2.34,26.64,26.64,0,0,1-.91-8.11,26.94,26.94,0,0,1,1.58-8,17.72,17.72,0,0,1,1-2.27c.27-.52.43-.8.47-.78s-.47,1.2-1.1,3.17a30.51,30.51,0,0,0-1.41,7.9,30.83,30.83,0,0,0,.75,8C106.77,210.35,107.22,211.56,107.14,211.59Z"/><path class="cls-6" d="M137.58,196.09c-.09,0-.45-1.14-1.36-2.88a22,22,0,0,0-1.85-2.9,23.64,23.64,0,0,0-2.85-3.08,23.32,23.32,0,0,0-3.39-2.48,22.59,22.59,0,0,0-3.09-1.5c-1.83-.71-3-.93-3-1a3.07,3.07,0,0,1,.86.09,14.6,14.6,0,0,1,2.29.59,19.06,19.06,0,0,1,3.2,1.44,19.93,19.93,0,0,1,6.38,5.69,19.24,19.24,0,0,1,1.8,3,13.86,13.86,0,0,1,.85,2.2A2.49,2.49,0,0,1,137.58,196.09Z"/><path class="cls-6" d="M145.65,197.22a31.82,31.82,0,0,0-1.92-3.34,22.36,22.36,0,0,0-6.88-6.13,50,50,0,0,0-8.52-3.76l-2.68-1a4.81,4.81,0,0,1-1-.4,3.67,3.67,0,0,1,1,.21c.65.17,1.59.43,2.73.79a41.54,41.54,0,0,1,8.67,3.66,20.83,20.83,0,0,1,6.92,6.37,14.08,14.08,0,0,1,1.33,2.54A3.24,3.24,0,0,1,145.65,197.22Z"/></g></svg>