<svg xmlns="http://www.w3.org/2000/svg" viewBox="0 0 108.14 108.13"><defs><style>.cls-1{fill:#6d6e71;}.cls-2{fill:#00aeef;}.cls-3{fill:#8ac757;}.cls-4{fill:#aa1d36;}</style></defs><g id="Layer_2" data-name="Layer 2"><g id="Layer_1-2" data-name="Layer 1"><path class="cls-1" d="M103,41.63,66.49,5.14a17.61,17.61,0,0,0-24.86,0L5.14,41.63a17.62,17.62,0,0,0,0,24.87L20.68,82l21,20.95a17.6,17.6,0,0,0,24.86,0L87.45,82,103,66.5a17.59,17.59,0,0,0,0-24.87Zm-7.07,17.8L73.3,82,59.42,95.92a7.58,7.58,0,0,1-10.72,0L12.21,59.43a7.58,7.58,0,0,1,0-10.72L48.7,12.21a7.58,7.58,0,0,1,10.72,0l36.5,36.5a7.58,7.58,0,0,1,0,10.72Z"/><path class="cls-2" d="M75.63,47.43c-.06-.34-.12-.67-.19-1a21.92,21.92,0,0,0-42.86,0c-.09.42-.17.86-.23,1.29a6.7,6.7,0,0,0,0,6.33c.06.5.15,1,.25,1.48a21.53,21.53,0,0,0,1.24,4A21.9,21.9,0,0,0,50.34,72.6a21.26,21.26,0,0,0,7.35,0c.61-.1,1.21-.23,1.8-.38a6.64,6.64,0,0,0,2.33.42,6.73,6.73,0,0,0,6.51-5,7,7,0,0,0,.2-1.66,6.55,6.55,0,0,0-.63-2.83,18,18,0,0,1-2.31,2.22,2.59,2.59,0,0,1,0,.56A3.93,3.93,0,0,1,59,68.74a18.35,18.35,0,0,1-23-14.38,3.94,3.94,0,0,1,.08-6.92A18.31,18.31,0,0,1,72,47.56a4,4,0,0,1,.07,6.71,3.92,3.92,0,0,1-2.19.66h-.26a4,4,0,0,1-.08-8,16.06,16.06,0,0,0-31,.07,3.93,3.93,0,0,1-.08,7.79A16.07,16.07,0,0,0,54.07,67.16a15.71,15.71,0,0,0,3.78-.46,4.47,4.47,0,0,1-.08-.82,3.93,3.93,0,0,1,6.82-2.67,15.06,15.06,0,0,0,2-2,6.74,6.74,0,0,0-4.73-2,6.71,6.71,0,0,0-6.3,4.41,10.75,10.75,0,0,1-1.51.09,12.67,12.67,0,0,1-9.46-4.22,12.48,12.48,0,0,1-2.15-3.31,6.4,6.4,0,0,0,.72-.66H65a6.57,6.57,0,0,0,3.75,2,6.86,6.86,0,0,0,1.12.1,6.45,6.45,0,0,0,1.33-.14,6.73,6.73,0,0,0,3.54-2,6.41,6.41,0,0,0,.89-1.18,6.69,6.69,0,0,0,0-6.92Zm-10.72-1H43.23a7.47,7.47,0,0,0-.76-.73,12.7,12.7,0,0,1,23.12.08A5.91,5.91,0,0,0,64.91,46.43Z"/><circle class="cls-3" cx="37.84" cy="51.01" r="2.63"/><circle class="cls-4" cx="70.07" cy="51.01" r="2.63"/><circle class="cls-2" cx="61.87" cy="65.97" r="2.63"/></g></g></svg>