<svg xmlns="http://www.w3.org/2000/svg" viewBox="0 0 444.97 444.97"><defs><style>.cls-1,.cls-2{fill:#fff;}.cls-2{opacity:0.6;}</style></defs><g id="Layer_2" data-name="Layer 2"><g id="Layer_1-2" data-name="Layer 1"><circle class="cls-1" cx="222.46" cy="136.37" r="56.75"/><path class="cls-1" d="M418.56,158.73,286.2,26.36a90.23,90.23,0,0,0-127.47,0L26.36,158.73a90.23,90.23,0,0,0,0,127.47L158.73,418.56h0a90.12,90.12,0,0,0,127.48,0L418.56,286.21a90.12,90.12,0,0,0,0-127.48ZM261.24,393.6a54.81,54.81,0,0,1-77.55,0l-49.81-49.8,74.3-74.31a20.18,20.18,0,0,1,28.55,0L311,343.8ZM393.6,261.24l-54,54L236.73,212.39a20.19,20.19,0,0,0-28.55,0L105.33,315.25l-54-54a54.9,54.9,0,0,1,0-77.55L183.69,51.32a54.91,54.91,0,0,1,77.55,0L393.6,183.69a54.84,54.84,0,0,1,0,77.55Z"/><path class="cls-2" d="M234.81,300.18l71.94-72a17.44,17.44,0,0,1,24.68,0h0a17.46,17.46,0,0,1,0,24.68l-96.62,96.63a17.44,17.44,0,0,1-24.68,0L113.5,252.91a17.44,17.44,0,0,1,0-24.68h0a17.44,17.44,0,0,1,24.68,0l71.95,72A17.46,17.46,0,0,0,234.81,300.18Z"/></g></g></svg>