<svg xmlns="http://www.w3.org/2000/svg" viewBox="0 0 108.14 108.13"><defs><style>.cls-1{fill:#6d6e71;}.cls-2{fill:#1a66b1;}.cls-3{fill:#2f76bc;}.cls-4{fill:#2f8dcd;}.cls-5{fill:#39a6de;}</style></defs><g id="Layer_2" data-name="Layer 2"><g id="Layer_1-2" data-name="Layer 1"><path class="cls-1" d="M103,41.63,66.49,5.14a17.61,17.61,0,0,0-24.86,0L5.14,41.63a17.62,17.62,0,0,0,0,24.87L20.68,82l21,20.95a17.6,17.6,0,0,0,24.86,0L87.45,82,103,66.5a17.59,17.59,0,0,0,0-24.87Zm-7.07,17.8L73.3,82,59.42,95.92a7.58,7.58,0,0,1-10.72,0L12.21,59.43a7.58,7.58,0,0,1,0-10.72L48.7,12.21a7.58,7.58,0,0,1,10.72,0l36.5,36.5a7.58,7.58,0,0,1,0,10.72Z"/><g id="STYLE_COLOR" data-name="STYLE COLOR"><path class="cls-2" d="M48.19,47h0L58.6,53.24l6.2-2.61h0a9.8,9.8,0,0,1,4-.82l.68,0a15.49,15.49,0,0,0-27.95-4.67h.16A12.2,12.2,0,0,1,48.19,47Z"/><path class="cls-3" d="M48.19,47h0a12.2,12.2,0,0,0-6.51-1.85h-.16a12.39,12.39,0,0,0-10,19.48l9.18-3.87,4.08-1.71,9.08-3.83,4.75-2Z"/><path class="cls-4" d="M69.47,49.83l-.68,0a9.8,9.8,0,0,0-4,.82h0l-6.2,2.61,1.79,1.07,5.9,3.54,2.57,1.54,8.8,5.26A10.08,10.08,0,0,0,73.57,51,10.2,10.2,0,0,0,69.47,49.83Z"/><path class="cls-5" d="M68.86,59.39l-2.57-1.54-5.9-3.54L58.6,53.24l-4.75,2-9.08,3.83-4.08,1.71-9.18,3.87A12.39,12.39,0,0,0,41.68,70H68.79a10.09,10.09,0,0,0,8.87-5.3Z"/></g></g></g></svg>