<svg xmlns="http://www.w3.org/2000/svg" viewBox="0 0 861.95 500"><defs><style>.cls-1{fill:#ebebeb;}.cls-2{fill:#e0e0e0;}.cls-3{fill:#fafafa;}.cls-4{fill:#fff;}.cls-5{fill:#263238;}.cls-6{fill:#ff725e;}.cls-7{fill:#455a64;}.cls-8{opacity:0.3;}.cls-9{fill:#a26760;}.cls-10{fill:#7b4b45;}</style></defs><g id="Background_Complete" data-name="Background Complete"><rect class="cls-1" x="351.19" y="51.56" width="66.44" height="17.58"/><path class="cls-2" d="M389.53,87.65s0-.11,0-.32,0-.53,0-.9c0-.83,0-2-.05-3.46,0-3-.06-7.4-.11-12.89l.2.2-66.43.13.33-.33h0V87.65l-.33-.33,47.34.15,14,.1,3.78,0,1,0a2.37,2.37,0,0,1,.35,0,.87.87,0,0,1-.3,0l-1,0-3.71,0-13.9.09L323.1,88h-.33v-.33q0-4.25,0-8.64V70.09h0c.67-.68.19-.19.34-.34l66.43.13h.21v.21c-.05,5.55-.09,10-.11,13,0,1.46,0,2.6-.05,3.42,0,.35,0,.64,0,.86A.9.9,0,0,1,389.53,87.65Z"/><rect class="cls-2" x="222.84" y="24.63" width="115.22" height="120.11"/><rect class="cls-3" x="215.04" y="24.63" width="115.22" height="120.11"/><path class="cls-2" d="M330.3,144.78H215V24.59H330.3Zm-115.23-.08H330.22v-120H215.07Z"/><rect class="cls-4" x="230.52" y="40.77" width="84.25" height="87.82"/><path class="cls-2" d="M230.52,129.18a13.6,13.6,0,0,1-2.07,2.41c-1.35,1.42-3.24,3.35-5.36,5.43s-4.07,3.95-5.5,5.27a13.84,13.84,0,0,1-2.44,2,13.48,13.48,0,0,1,2.07-2.41c1.34-1.42,3.24-3.34,5.37-5.44s4.07-3.95,5.51-5.27A13.68,13.68,0,0,1,230.52,129.18Z"/><path class="cls-2" d="M314.77,129a14.38,14.38,0,0,1,2.42,2.08c1.42,1.35,3.34,3.24,5.43,5.36s3.94,4.06,5.26,5.5a13.47,13.47,0,0,1,2,2.43,13.28,13.28,0,0,1-2.4-2.06c-1.42-1.35-3.35-3.24-5.44-5.37s-4-4.08-5.28-5.51A13.09,13.09,0,0,1,314.77,129Z"/><path class="cls-2" d="M314.54,41a13.27,13.27,0,0,1,2.08-2.42c1.34-1.42,3.23-3.34,5.35-5.43s4.07-3.95,5.51-5.27a12.71,12.71,0,0,1,2.43-2,13.14,13.14,0,0,1-2.07,2.4c-1.34,1.42-3.24,3.35-5.36,5.44s-4.08,4-5.52,5.28A12.88,12.88,0,0,1,314.54,41Z"/><path class="cls-2" d="M230.29,41.22a13.6,13.6,0,0,1-2.41-2.07c-1.42-1.35-3.34-3.24-5.43-5.36s-3.95-4.07-5.27-5.5a13.84,13.84,0,0,1-2-2.44,13.48,13.48,0,0,1,2.41,2.07c1.42,1.34,3.34,3.24,5.44,5.37s4,4.07,5.28,5.51A13.28,13.28,0,0,1,230.29,41.22Z"/><path class="cls-2" d="M314.54,128.59a3.53,3.53,0,0,1,0-.42c0-.3,0-.71,0-1.23q0-1.65,0-4.74c0-4.16-.05-10.21-.09-17.9,0-15.38-.1-37.29-.17-63.53l.33.33-84,0h0l.38-.38c0,32.24,0,62.39-.05,87.82l-.33-.32,60.84.17,17.08.08,4.52,0,1.17,0h.41a1.39,1.39,0,0,1-.37,0l-1.14,0-4.45,0-17,.08-61,.16h-.32v-.32c0-25.43,0-55.58,0-87.82V40.4h.38l84,.05h.33v.32c-.07,26.33-.13,48.31-.17,63.74,0,7.65-.07,13.68-.09,17.82,0,2,0,3.6,0,4.68,0,.51,0,.9,0,1.19A2.53,2.53,0,0,1,314.54,128.59Z"/><rect class="cls-1" x="258.59" y="70.63" width="28.11" height="28.11"/><path class="cls-2" d="M249.21,168.42l17.46-4,4.9,35.05-11.67,2.66Zm14.33,51.88a7.87,7.87,0,0,1-3.78-5.19,7.55,7.55,0,0,1,1.17-6.28,9.33,9.33,0,0,1,5.83-3.69,9.1,9.1,0,0,1,6.8.81,7.59,7.59,0,0,1,3.74,5.16,7.83,7.83,0,0,1-1.16,6.32,8.9,8.9,0,0,1-5.72,3.78A9,9,0,0,1,263.54,220.3Z"/><path class="cls-2" d="M214.64,174.48a5.75,5.75,0,0,1,4.28,2A5.54,5.54,0,0,1,220.4,181a6.85,6.85,0,0,1-2.45,4.44,6.7,6.7,0,0,1-4.67,1.9,5.62,5.62,0,0,1-4.24-2,5.79,5.79,0,0,1-1.5-4.49,7.25,7.25,0,0,1,7.1-6.32Zm27.65,28.36-9.84,8.76-15.6-20.86,6.58-5.85Z"/><rect class="cls-1" x="575.52" y="276.35" width="66.44" height="17.58"/><path class="cls-2" d="M613.86,312.44a2.15,2.15,0,0,1,0-.32c0-.23,0-.53,0-.9,0-.83,0-2-.05-3.46,0-3-.07-7.4-.12-12.9l.21.21-66.43.13.33-.33h0v8.92c0,2.93,0,5.81,0,8.64l-.33-.33,47.35.15,14,.09,3.78,0,1,0,.35,0a1,1,0,0,1-.31,0l-.94,0-3.71,0-13.9.09-47.58.15h-.33v-9c0-1.47,0-2.95,0-4.44v-4.48h0c.68-.68.19-.19.35-.34l66.43.13h.21v.2c-.05,5.56-.09,10-.12,13,0,1.46,0,2.6-.05,3.42,0,.35,0,.64,0,.86A1.32,1.32,0,0,1,613.86,312.44Z"/><path class="cls-2" d="M590.08,64.87s0-.12,0-.32,0-.53,0-.9c0-.83,0-2,0-3.46,0-3-.06-7.4-.11-12.9l.2.21-66.43.13c.15-.15-.34.34.33-.34h0V64.87l-.33-.33,47.34.15,14,.09,3.78,0,1,0a1.35,1.35,0,0,1,.35,0l-.3,0-.95,0-3.71,0-13.9.1-47.57.15h-.33V47.3h0l.34-.34,66.43.14h.21v.2c0,5.55-.09,10-.11,13,0,1.46,0,2.6,0,3.41,0,.36,0,.64,0,.87A1,1,0,0,1,590.08,64.87Z"/><path class="cls-2" d="M599.09,47.29a2.4,2.4,0,0,1,0-.33c0-.26,0-.56,0-.93,0-.87,0-2.05-.06-3.53,0-3.08-.08-7.43-.13-12.79l.24.25-39.91.09.33-.33h0v9c0,2.94,0,5.79,0,8.52l-.33-.32,28.56.15,8.32.09,2.24,0a6.49,6.49,0,0,1,.8,0,4.42,4.42,0,0,1-.72,0l-2.18,0-8.24.09-28.78.15h-.32v-.32c0-2.73,0-5.58,0-8.52v-9h0c-.08.07.64-.65.34-.34l39.91.09h.25v.24c-.06,5.42-.1,9.82-.13,12.94,0,1.46-.05,2.62-.07,3.47A7.66,7.66,0,0,1,599.09,47.29Z"/><path class="cls-2" d="M495.37,410.34a2.33,2.33,0,0,1,0-.32c0-.24,0-.53,0-.9,0-.83,0-2-.05-3.46,0-3-.07-7.4-.12-12.9l.21.21-66.44.13.34-.34h0v8.9q0,4.41,0,8.65l-.33-.33,47.35.15,14,.09,3.78.05,1,0,.35,0a1.64,1.64,0,0,1-.31,0l-.95,0-3.7.05-13.9.09-47.58.15h-.33v-.33q0-4.24,0-8.65v-8.9h0l.34-.34,66.44.14h.21v.2c0,5.56-.08,10-.11,13,0,1.46,0,2.6,0,3.41l0,.87A1.32,1.32,0,0,1,495.37,410.34Z"/><path class="cls-2" d="M504.38,392.76a1.62,1.62,0,0,1,0-.33c0-.25,0-.56,0-.93,0-.87,0-2-.07-3.53,0-3.08-.07-7.43-.13-12.78l.25.24-39.92.1.34-.34h0v4.57c0,1.51,0,3,0,4.47,0,2.94,0,5.79,0,8.52l-.32-.32,28.55.15,8.32.09,2.25,0,.8,0a3.53,3.53,0,0,1-.73,0l-2.17,0-8.25.09-28.77.16h-.32v-.33c0-2.73,0-5.58,0-8.52v-9h0l.34-.34,39.92.09h.24v.25c-.05,5.41-.1,9.81-.13,12.93,0,1.46-.05,2.62-.06,3.47S504.39,392.78,504.38,392.76Z"/></g><g id="Desk"><path class="cls-5" d="M629.06,469.55c0,.14-88.69.26-198.07.26s-198.09-.12-198.09-.26,88.67-.26,198.09-.26S629.06,469.4,629.06,469.55Z"/></g><g id="Plant"><path class="cls-6" d="M592.48,355.21a8.55,8.55,0,0,0-.6,3.71,12.4,12.4,0,0,0-1.68-4.21c-.31-.48-.79-1-1.34-.85s-.73.83-.75,1.4a9,9,0,0,0,1,4.53,10.13,10.13,0,0,0-3.83-3,.88.88,0,0,0-.83-.06c-.29.18-.3.59-.25.92a7.75,7.75,0,0,0,4.71,6l.81.12a7.21,7.21,0,0,0,5.17-8.29c-.12-.67-.51-1.45-1.19-1.46S592.71,354.64,592.48,355.21Z"/><path class="cls-7" d="M574.3,391.52a23.32,23.32,0,0,1,7.7-3.11,31.67,31.67,0,0,1-.21-17,16.44,16.44,0,0,1,2.87-6.13,8.4,8.4,0,0,1,5.79-3.23,8.14,8.14,0,0,1,6.43,3l2.84,6.58a25.61,25.61,0,0,1,.35,2.89,34.7,34.7,0,0,1-4.16,18.4c3,3.26,6.18,8.9,5.21,15.43H567.35C566.76,402,569.14,395.24,574.3,391.52Z"/><path class="cls-5" d="M597.42,395s-.08-.14-.26-.37a9.57,9.57,0,0,0-.83-1,15.7,15.7,0,0,0-3.75-2.87,17.71,17.71,0,0,0-6.66-2.12,16.1,16.1,0,0,0-15.14,6.53,17.75,17.75,0,0,0-3,6.3,15.86,15.86,0,0,0-.49,4.69c0,.55.11,1,.13,1.27a1.5,1.5,0,0,0,.1.44,20.54,20.54,0,0,1,.61-6.31,17.76,17.76,0,0,1,3.06-6.11,15.89,15.89,0,0,1,14.71-6.34,17.94,17.94,0,0,1,6.54,2A20.38,20.38,0,0,1,597.42,395Z"/><path class="cls-5" d="M600.24,376.89a8,8,0,0,0,.06-2.24,19.37,19.37,0,0,0-.91-5.34,10.94,10.94,0,0,0-2.89-4.6,4.53,4.53,0,0,0-1.9-1.2c-.05.08.71.49,1.65,1.46a12.16,12.16,0,0,1,2.66,4.5,25,25,0,0,1,1,5.21A12.69,12.69,0,0,0,600.24,376.89Z"/><path class="cls-5" d="M580.71,404a125,125,0,0,0-6.41-6.34,14.62,14.62,0,0,0,2.9,3.48A15.16,15.16,0,0,0,580.71,404Z"/><path class="cls-5" d="M584.48,402a11.79,11.79,0,0,0-.55-3.35,11.11,11.11,0,0,0-1-3.22,11.38,11.38,0,0,0,.55,3.35A11.11,11.11,0,0,0,584.48,402Z"/><path class="cls-5" d="M594.51,398.28a13.28,13.28,0,0,0-3,6.51,22.07,22.07,0,0,0,1.5-3.24A23.51,23.51,0,0,0,594.51,398.28Z"/><path class="cls-5" d="M583.66,382.51a17.06,17.06,0,0,0-2.28-3.44,16.88,16.88,0,0,0-2.7-3.14,16.87,16.87,0,0,0,2.29,3.44A16.64,16.64,0,0,0,583.66,382.51Z"/><path class="cls-5" d="M586.05,372a25.41,25.41,0,0,0-2.59-4.23,24.55,24.55,0,0,0-3-3.94,48.18,48.18,0,0,0,5.6,8.17Z"/><path class="cls-5" d="M589.85,374.72a25.52,25.52,0,0,0-.45,7.19,25.52,25.52,0,0,0,.45-7.19Z"/><path class="cls-5" d="M605,379.53a21.58,21.58,0,0,0-4.79,2.44,22.36,22.36,0,0,0-4.37,3.14,39.41,39.41,0,0,0,4.64-2.7A41,41,0,0,0,605,379.53Z"/><g class="cls-8"><path d="M592.86,388.62a11.81,11.81,0,0,0-5.47-1.35c-2-.1-4.17.1-5.5,1.55v.07a20.42,20.42,0,0,1,13.87,4.33A5.51,5.51,0,0,0,592.86,388.62Z"/></g><path class="cls-6" d="M576.81,322.29a6.72,6.72,0,0,0-3-.12,9.74,9.74,0,0,0,3.13-1.71c.35-.29.71-.71.55-1.13s-.72-.49-1.17-.45a7.08,7.08,0,0,0-3.44,1.23,8,8,0,0,0,2-3.28.55.55,0,0,0-.77-.76,6.11,6.11,0,0,0-4.23,4.24l0,.65a5.77,5.77,0,0,0,2.85,3,5.7,5.7,0,0,0,4.12.27c.51-.16,1.09-.53,1-1.06S577.28,322.41,576.81,322.29Z"/><path class="cls-6" d="M508.69,279.12a6.73,6.73,0,0,0,.14,3,9.76,9.76,0,0,0-2-3c-.31-.32-.76-.64-1.16-.44s-.43.76-.36,1.2a7.29,7.29,0,0,0,1.52,3.33,7.94,7.94,0,0,0-3.43-1.68.71.71,0,0,0-.65.08c-.19.18-.13.5,0,.75a6.09,6.09,0,0,0,4.58,3.86l.64,0a5.69,5.69,0,0,0,2.67-7.22c-.2-.5-.62-1-1.15-.94S508.78,278.65,508.69,279.12Z"/><path class="cls-7" d="M556.12,367.44c-.5,0-1,.07-1.45.12-.88-9.65,2.05-19.45-.9-28.67l.39.5a21.72,21.72,0,0,0,10.59-.95,13.25,13.25,0,0,0,7.66-7.09,9.6,9.6,0,0,0-1.63-10c-3.34-3.49-9.22-3.31-13.41-.9s-6.88,6.21-9.54,10.05a17.71,17.71,0,0,0-4.62-2.65c4.66-6.41,9.16-13.14,10.63-20.89,1.61-8.47-1.56-18.5-9.42-22-6.7-3-15.09-.29-19.81,5.34-.37.44-.68.91-1,1.38l.16-.46a12.17,12.17,0,0,0-6.37-6.7,10.34,10.34,0,0,0-9.14.44,9,9,0,0,0-4.49,7.84,10,10,0,0,0,5.81,8.35,15.74,15.74,0,0,0,10,.93,30.17,30.17,0,0,0,0,9c1.05,6.73,4.05,13,7.62,18.83a17.11,17.11,0,0,0-2.75,2.27c-6.06,6.35-6.45,16.55-3.27,24.74S533,371.08,539,377.52h0a39,39,0,0,0-4.59,14.4,13.14,13.14,0,0,0-11.56-7.42c-2.61,0-5.53,1.18-6.34,3.66-.71,2.19.49,4.55,2,6.24a16.54,16.54,0,0,0,15.29,4.48l.07-1.59a69.43,69.43,0,0,0,.26,11h38.54S583,366.44,556.12,367.44Z"/><rect class="cls-6" x="525.72" y="408.3" width="91.19" height="16.16"/><polygon class="cls-6" points="532.53 421.25 543.62 469.55 597.96 469.55 610.09 421.25 532.53 421.25"/><path class="cls-5" d="M616.85,424.48c0,.18-20.57.32-45.93.32s-45.94-.14-45.94-.32,20.56-.32,45.94-.32S616.85,424.3,616.85,424.48Z"/><path class="cls-5" d="M563.27,369a2.5,2.5,0,0,0-.53-.3,11.32,11.32,0,0,0-1.6-.69,15.79,15.79,0,0,0-6.35-.73,19.37,19.37,0,0,0-8.93,3.12,24,24,0,0,0-7.67,8.68,35.39,35.39,0,0,0-3.67,11,59.22,59.22,0,0,0-.62,9.45c0,2.7.1,4.88.16,6.38,0,.71.05,1.28.07,1.73a2.45,2.45,0,0,0,.06.61,2.92,2.92,0,0,0,0-.61c0-.45,0-1,0-1.73,0-1.57,0-3.73,0-6.37a61.76,61.76,0,0,1,.72-9.39,35.5,35.5,0,0,1,3.65-10.84,23.82,23.82,0,0,1,7.49-8.53,19.21,19.21,0,0,1,8.7-3.16,16.33,16.33,0,0,1,6.25.56C562.51,368.67,563.24,369.09,563.27,369Z"/><path class="cls-5" d="M555.12,348.57a1.43,1.43,0,0,0,.06-.46c0-.3.07-.75.05-1.32a21.78,21.78,0,0,0-.57-4.83,22.63,22.63,0,0,0-2.67-6.69,18.61,18.61,0,0,0-2.59-3.41,14.8,14.8,0,0,0-3.61-2.86,15.13,15.13,0,0,0-4.3-1.66,18,18,0,0,0-4.28-.32,21,21,0,0,0-7,1.67,23.82,23.82,0,0,0-4.26,2.33c-.48.31-.82.6-1.06.78s-.36.29-.35.31a17.51,17.51,0,0,0,1.52-.93,27.12,27.12,0,0,1,4.29-2.15,21,21,0,0,1,6.9-1.53,17.39,17.39,0,0,1,4.15.33A15,15,0,0,1,549,332.2a18.49,18.49,0,0,1,2.54,3.31,23.39,23.39,0,0,1,2.73,6.54,24.35,24.35,0,0,1,.72,4.75A17.34,17.34,0,0,0,555.12,348.57Z"/><path class="cls-5" d="M519.29,307.79a16.47,16.47,0,0,0,.33-3.09c.08-1,.17-2.09.38-3.33a16.44,16.44,0,0,1,1.09-3.91,39.93,39.93,0,0,1,3.53-6.56c1-1.59,1.85-2.47,1.79-2.52s-.25.17-.63.55a19.3,19.3,0,0,0-1.46,1.76,32.78,32.78,0,0,0-3.7,6.57,15.43,15.43,0,0,0-1.08,4,28.68,28.68,0,0,0-.28,3.39A21.41,21.41,0,0,0,519.29,307.79Z"/><path class="cls-5" d="M524.27,394.44a11,11,0,0,0-2.63,1.95,10.51,10.51,0,0,0-2.29,2.33,11,11,0,0,0,2.63-2A10.51,10.51,0,0,0,524.27,394.44Z"/><path class="cls-5" d="M521,391.23a10.53,10.53,0,0,0-3.26-.58,10.92,10.92,0,0,0-3.32-.07,21.5,21.5,0,0,0,6.58.65Z"/><path class="cls-5" d="M523.49,385.54a18.17,18.17,0,0,0-1.84-2.53,20.23,20.23,0,0,0-1.84-2.53,6.71,6.71,0,0,0,1.43,2.83A6.55,6.55,0,0,0,523.49,385.54Z"/><path class="cls-5" d="M527.8,382.93a14,14,0,0,0,.6,3.73,14.83,14.83,0,0,0,1.09,3.62,27.39,27.39,0,0,0-1.69-7.35Z"/><path class="cls-5" d="M530.69,396c.09-.11-.52-.81-1.36-1.57s-1.61-1.3-1.71-1.19.52.81,1.36,1.57S530.59,396.06,530.69,396Z"/><path class="cls-5" d="M544.09,393.43a7.29,7.29,0,0,0-1.66-2.09c-1-1.06-1.92-1.84-2-1.74a7.18,7.18,0,0,0,1.65,2.1C543.08,392.75,544,393.53,544.09,393.43Z"/><path class="cls-5" d="M547,381.06a8,8,0,0,0-1.24-2.51,7.84,7.84,0,0,0-1.67-2.24,7.82,7.82,0,0,0,1.23,2.51A8,8,0,0,0,547,381.06Z"/><path class="cls-5" d="M555.53,371a10.13,10.13,0,0,0-.3,3.21,10.55,10.55,0,0,0,.21,3.22,10.24,10.24,0,0,0,.3-3.21A10.55,10.55,0,0,0,555.53,371Z"/><path class="cls-5" d="M573.43,374.4a24.37,24.37,0,0,0-2.54,3,23,23,0,0,0-2.44,3.07,17.61,17.61,0,0,0,5-6Z"/><path class="cls-5" d="M575.73,392a19.81,19.81,0,0,0-6.28,1.21,19.81,19.81,0,0,0,6.28-1.21Z"/><path class="cls-5" d="M557.16,398.11a9.54,9.54,0,0,0-1.24-3.52,9.44,9.44,0,0,0-2.11-3.07,25.47,25.47,0,0,0,1.66,3.31A24.64,24.64,0,0,0,557.16,398.11Z"/><path class="cls-5" d="M563.35,389.68a13.44,13.44,0,0,0,.11-5.21,6.85,6.85,0,0,0-.31,2.6A7,7,0,0,0,563.35,389.68Z"/><path class="cls-5" d="M543.36,404.55a5.79,5.79,0,0,0-1.09-2.72,5.86,5.86,0,0,0-1.93-2.2,16,16,0,0,0,1.5,2.47A16.2,16.2,0,0,0,543.36,404.55Z"/><path class="cls-5" d="M564.56,405.77a15.61,15.61,0,0,0,2.3-5.21,16.16,16.16,0,0,0-2.3,5.21Z"/><path class="cls-5" d="M531.61,366.56a12.68,12.68,0,0,0-3.54-.14,12,12,0,0,0-3.51.38,24.05,24.05,0,0,0,7.05-.24Z"/><path class="cls-5" d="M523.92,353.41a36.61,36.61,0,0,0-7.08-5,18.79,18.79,0,0,0,3.39,2.72A19.46,19.46,0,0,0,523.92,353.41Z"/><path class="cls-5" d="M524.72,336.51a20.85,20.85,0,0,0-2.77-1.83,23.11,23.11,0,0,0-2.76-1.84,7.42,7.42,0,0,0,2.48,2.27A7.54,7.54,0,0,0,524.72,336.51Z"/><path class="cls-5" d="M533.33,330.53a17.23,17.23,0,0,0-.75-4.12,17.41,17.41,0,0,0-1.24-4,33.48,33.48,0,0,0,2,8.12Z"/><path class="cls-5" d="M547.73,326.27a8.62,8.62,0,0,0-1.68,2.48,9.22,9.22,0,0,0-1.23,2.73A8.62,8.62,0,0,0,546.5,329,9.1,9.1,0,0,0,547.73,326.27Z"/><path class="cls-5" d="M560.13,354.79c-.09-.12-1.73,1.14-3.89,2.47s-4,2.24-4,2.38a13.51,13.51,0,0,0,4.22-1.95A13.28,13.28,0,0,0,560.13,354.79Z"/><path class="cls-5" d="M540,361.2a18,18,0,0,0-5.21-3.21A18.57,18.57,0,0,0,540,361.2Z"/><path class="cls-5" d="M536.65,347.56c.1-.11-1.2-1.39-2.41-3.25s-1.87-3.56-2-3.51a11.34,11.34,0,0,0,4.42,6.76Z"/><path class="cls-5" d="M543.25,344.48a10.47,10.47,0,0,0,.11-3.3,11,11,0,0,0-.41-3.28,10.84,10.84,0,0,0-.11,3.3A11,11,0,0,0,543.25,344.48Z"/><path class="cls-5" d="M546.9,358a22.12,22.12,0,0,0,.78-6.74,23,23,0,0,0-.78,6.74Z"/><path class="cls-5" d="M557.1,317.35a30.42,30.42,0,0,0-1.08,3.78A29.71,29.71,0,0,0,555,324.9a10.38,10.38,0,0,0,1.57-3.63A10.56,10.56,0,0,0,557.1,317.35Z"/><path class="cls-5" d="M564.28,341a23.42,23.42,0,0,0-2.94-2.17,24.49,24.49,0,0,0-3-2.14,9.1,9.1,0,0,0,2.66,2.55A9.36,9.36,0,0,0,564.28,341Z"/><path class="cls-5" d="M574,333.76a163.21,163.21,0,0,0-7.2-1.38,14.57,14.57,0,0,0,7.2,1.38Z"/><path class="cls-5" d="M564.54,325.64a5.26,5.26,0,0,0-2,1c-1.06.68-1.85,1.32-1.78,1.44s1-.33,2.06-1S564.62,325.76,564.54,325.64Z"/><path class="cls-5" d="M569.29,316.87a9.26,9.26,0,0,0-3.93,4.51,16.82,16.82,0,0,0,2-2.24A17.43,17.43,0,0,0,569.29,316.87Z"/><path class="cls-5" d="M575.74,325.23a18.33,18.33,0,0,0-3.32.82,18.79,18.79,0,0,0-3.28.95,8.43,8.43,0,0,0,3.42-.45A8.67,8.67,0,0,0,575.74,325.23Z"/><path class="cls-5" d="M531,314a50.78,50.78,0,0,0-2.92-4.44,50.13,50.13,0,0,0-3-4.41,19.51,19.51,0,0,0,2.54,4.69A19.24,19.24,0,0,0,531,314Z"/><path class="cls-5" d="M533.86,303.75a28.58,28.58,0,0,0-1-7.58,28.58,28.58,0,0,0,1,7.58Z"/><path class="cls-5" d="M543.81,305.34c-.15,0-.57,1.94-1.55,4.19s-2.12,3.92-2,4a10.6,10.6,0,0,0,2.46-3.8A10.31,10.31,0,0,0,543.81,305.34Z"/><path class="cls-5" d="M555.49,307.81c-.12-.09-1.57,1.62-3.58,3.51s-3.8,3.24-3.72,3.36a20.83,20.83,0,0,0,7.3-6.87Z"/><path class="cls-5" d="M551,286.6c-.15,0-.6,2.13-1.4,4.71s-1.64,4.63-1.5,4.69a21.76,21.76,0,0,0,2.9-9.4Z"/><path class="cls-5" d="M537.51,279.62a14.35,14.35,0,0,0-.49,3.77,14.62,14.62,0,0,0,0,3.81,14.38,14.38,0,0,0,.49-3.78A14.56,14.56,0,0,0,537.51,279.62Z"/><path class="cls-5" d="M509.74,297.56a15,15,0,0,0-2.9.21A14.67,14.67,0,0,0,504,298a5.81,5.81,0,0,0,2.93.25A6,6,0,0,0,509.74,297.56Z"/><path class="cls-5" d="M510.55,290.55a21.24,21.24,0,0,0-4-2.4,20.43,20.43,0,0,0-4.22-1.94,21.77,21.77,0,0,0,4,2.4A20.75,20.75,0,0,0,510.55,290.55Z"/><path class="cls-5" d="M518.07,290.8a13.66,13.66,0,0,0-.85-3.56,13.45,13.45,0,0,0-1.34-3.41,12.83,12.83,0,0,0,.85,3.56A12.63,12.63,0,0,0,518.07,290.8Z"/><g class="cls-8"><path d="M539.1,377.56a12,12,0,0,1,5.13-9.44c3-2,8.51-2.24,10.66-.71a16.51,16.51,0,0,0-9.35,3.22,26.24,26.24,0,0,0-6.44,6.93"/></g><g class="cls-8"><path d="M527.21,330.53a10.39,10.39,0,0,1,7.34-5.71c3.11-.57,7.53,1.16,8.7,3.11a14.28,14.28,0,0,0-8.53-.67,22.69,22.69,0,0,0-7.51,3.27"/></g><g class="cls-8"><path d="M519.35,302.57a8.26,8.26,0,0,1-.5-7.11c.92-2.28,2.7-3.4,5.07-4.08-2.42,3.51-4.32,7.07-4.51,11.32"/></g><path class="cls-5" d="M568,371.24s.4.37,1,1.12a19.63,19.63,0,0,1,2.34,3.42A37.32,37.32,0,0,1,574.71,389a59.69,59.69,0,0,1-.68,13.69c-.27,1.74-.53,3.15-.71,4.12a7.26,7.26,0,0,0-.23,1.52,9.38,9.38,0,0,0,.44-1.47c.25-1,.57-2.36.9-4.1a54.27,54.27,0,0,0,.84-13.8,35.16,35.16,0,0,0-3.56-13.35,17.68,17.68,0,0,0-2.51-3.37A4.08,4.08,0,0,0,568,371.24Z"/><path class="cls-5" d="M525.72,408.3l.27,0,.82,0,3.13,0,11.5.08,38,.07,37.5-.07-.18-.18c0,5,0,9,0,11.84,0,1.37,0,2.44,0,3.22,0,.34,0,.62,0,.83a.94.94,0,0,0,0,.29,1.11,1.11,0,0,0,0-.29c0-.21,0-.49,0-.83,0-.78,0-1.85.06-3.22,0-2.84.07-6.87.12-11.84v-.19h-.19L579.4,408l-38,.08-11.5.08-3.13.05-.82,0A.94.94,0,0,0,525.72,408.3Z"/></g><g id="Speech_Bubble" data-name="Speech Bubble"><polygon class="cls-4" points="429.42 83.63 436.99 236.67 464.04 236.16 464.04 276.17 502.38 236.77 624.88 236.77 638.64 75.79 429.42 83.63"/><path class="cls-5" d="M429.42,83.63l209.21-8.07h.26l0,.26c-4.1,48-8.78,102.85-13.73,161l0,.24H502.39l.17-.07-38.35,39.38-.41.42v-.58q0-20.87,0-40l.22.22-27,.5h-.21v-.2c-4.49-93.28-7.28-151.36-7.36-153,.08,1.69,3,59.76,7.78,153l-.21-.2,27.05-.52h.22v.23q0,19.17,0,40l-.41-.17,38.34-39.4.07-.08h122.6l-.26.24c5-58.13,9.67-113,13.79-161l.24.25Z"/><polygon class="cls-6" points="606.12 121.76 618.35 92.48 628.83 98.7 606.12 121.76"/><polygon class="cls-6" points="618.15 144.13 650.34 146.26 647.8 158.39 618.15 144.13"/><polygon class="cls-6" points="613.54 127.67 655.51 103.63 663.73 121.93 613.54 127.67"/><polygon class="cls-6" points="566.65 104.85 568.49 109.33 572.98 111.18 568.49 113.02 566.65 117.51 564.8 113.02 560.32 111.18 564.8 109.33 566.65 104.85"/><polygon class="cls-6" points="460.19 207.33 462.03 211.82 466.52 213.66 462.03 215.51 460.19 219.99 458.35 215.51 453.86 213.66 458.35 211.82 460.19 207.33"/><polygon class="cls-6" points="551.45 102.01 552.37 104.25 554.62 105.18 552.37 106.1 551.45 108.34 550.53 106.1 548.29 105.18 550.53 104.25 551.45 102.01"/><polygon class="cls-6" points="476.51 205.51 477.43 207.76 479.67 208.68 477.43 209.6 476.51 211.84 475.59 209.6 473.34 208.68 475.59 207.76 476.51 205.51"/><polygon class="cls-6" points="618.85 173.34 619.77 175.58 622.01 176.5 619.77 177.42 618.85 179.67 617.92 177.42 615.68 176.5 617.92 175.58 618.85 173.34"/><path class="cls-6" d="M525.24,152.37l-7.57,35.23c-2.45,11.39-6.09,18.15-16.74,18.15-11.18,0-13.73-7.77-11.49-18.53l7.64-36.2c2.25-10.65,7-17.18,16.55-17.18C524.09,133.84,527.53,141.73,525.24,152.37ZM503.72,151,495.9,187.9c-1.76,8.23,0,12.19,5.68,12.19,5.1,0,7.62-3.9,9.42-12l7.82-36.5c1.69-8-.26-12-5.86-12C507.85,139.54,505.25,143.78,503.72,151Z"/><path class="cls-6" d="M523.55,204.84l15.53-73.2h6.46L530,204.84Z"/><path class="cls-6" d="M565.25,194.3c-.6,3-1.74,8.69-2,10.54H557c.17-1.42.45-3.3.77-4.84-2.66,4.57-5.48,5.68-9.52,5.68-7.69,0-9.32-7.41-7.61-15.6,2.43-11.41,8.42-14.94,20.74-17l2.1-.32,1.77-8.35c1.21-5.43,0-8.29-4.24-8.29-4.36,0-5.37,3.37-6.68,8.59l-.28,1.11h-6.36l.14-.67c1.47-7,3.53-14.39,13.88-14.39,8.53,0,11.72,5.06,10,13Zm-2.89-16.1-2,.31c-7.58,1.43-11.59,3.72-13.36,11.55-1.21,5.56-.44,9.82,4.05,9.82,4.93,0,7.75-5,9.83-15Zm18-47.67-14.54,13.69h-6.22L572,130.53Z"/></g><g id="Character"><path class="cls-5" d="M305.6,116.93a37.44,37.44,0,0,1,18.58-22.17c9.7-5,21.26-5.37,31.86-2.93s20.42,7.55,29.68,13.27c5.2,3.21,10.37,6.72,14,11.61,6.68,8.92,13.12,23.44,13.48,34.59.28,9-3.81,31.42-7.84,39.48-1.44,2.87-4.8,5.41-8.85,7.54a76.39,76.39,0,0,1-16.91,21.09l-5.73-18.3Z"/><path class="cls-5" d="M417.17,228.15c4.39-16.24,2.46-36.24,1.76-50.14s2.39-19.89-8.08-43.16c-7.84-17.43-20.79-28-33.14-34.41l-49.87,5.43c.36-.88.71-1.73,1.08-2.54L311.1,106c-6.55-.8-11.08,2.33-14.25,7.35a20.17,20.17,0,0,0-2.75,4c-2.36,4.59-3.14,9.8-3.89,14.9a118.49,118.49,0,0,0-1.08,15.23c-.14,2-.27,3.79-.41,5.16a23.81,23.81,0,0,0,.56,6.62c.73,21.42,3.47,45,.86,62.81-.27,1.86-.52,3.85.3,5.55s2.77,2.84,4.58,3.7c22.11,10.51,37.75-2.09,59.61-13.12,4.25-2.14,8.6-4.74,13.36-4.56,5,.19,9.21,13.38,13.83,15.41"/><path class="cls-9" d="M394.05,146.8c-.57-13.51-9-24.81-22-28.53l-40.53-11.58c-17.59-2.41-30,19-31.65,36.63-1.84,19.64-3.22,40.38-1.35,55.13,3.78,29.66,26.29,34.11,26.29,34.11s-.39,14.05-.63,22.67l19.68,94.57,42.77-98.69,7.49-104C394.17,146.66,394.08,147.48,394.05,146.8Z"/><path class="cls-5" d="M310.55,170a3.78,3.78,0,0,0,3.53,3.93,3.62,3.62,0,0,0,4-3.29,3.78,3.78,0,0,0-3.53-3.93A3.62,3.62,0,0,0,310.55,170Z"/><path class="cls-5" d="M304,155c.46.5,3.39-1.53,7.47-1.39s7,2.26,7.45,1.78c.22-.22-.23-1.12-1.5-2.11a10.43,10.43,0,0,0-6-2,10,10,0,0,0-6,1.73C304.22,153.91,303.77,154.79,304,155Z"/><path class="cls-5" d="M345.28,170.55a3.8,3.8,0,0,0,3.54,3.94,3.62,3.62,0,0,0,4-3.3,3.79,3.79,0,0,0-3.53-3.93A3.63,3.63,0,0,0,345.28,170.55Z"/><path class="cls-5" d="M342.68,156.12c.46.51,3.4-1.53,7.47-1.39s7,2.27,7.45,1.78c.22-.21-.22-1.12-1.5-2.11a10.36,10.36,0,0,0-6-2,9.94,9.94,0,0,0-6,1.72C342.92,155,342.46,155.89,342.68,156.12Z"/><path class="cls-5" d="M329,187.75c0-.23-2.49-.74-6.58-1.39-1-.14-2-.38-2.16-1.1s.24-1.86.79-3.06l3.32-7.82c4.61-11.15,8-20.33,7.54-20.51s-4.56,8.7-9.18,19.85c-1.11,2.75-2.18,5.37-3.19,7.88-.43,1.17-1.15,2.49-.66,4.06a2.6,2.6,0,0,0,1.66,1.58,7.37,7.37,0,0,0,1.76.3C326.45,187.89,329,188,329,187.75Z"/><path class="cls-10" d="M364.29,223.18s-10.19,20-39.65,16.33l.19-6.95A74.37,74.37,0,0,0,364.29,223.18Z"/><path class="cls-5" d="M344.38,137.6c.37,1.12,4.45.72,9.21,1.44s8.59,2.15,9.26,1.17c.29-.46-.35-1.53-1.87-2.65a16.19,16.19,0,0,0-14.07-2C345.14,136.22,344.23,137.07,344.38,137.6Z"/><path class="cls-5" d="M304.9,137.21c.69.95,3.53.07,6.9.13s6.22.82,6.9-.13c.31-.46-.12-1.4-1.34-2.32a9.54,9.54,0,0,0-5.56-1.69,9.63,9.63,0,0,0-5.56,1.69C305,135.81,304.6,136.75,304.9,137.21Z"/><path class="cls-5" d="M308.68,116.59c1.93-4.39,6.88-6.92,11.68-7s9.42,1.84,13.5,4.36c17.29,10.66,25.63,35.46,42.7,46.47,4.2,2.71,9.83.5,13.36,4s5.74,9.07,3.6,13.58c2.43-3.13,4.89-6.32,6.32-10s1.72-8-.16-11.52c-1.43-2.65-4-4.71-4.67-7.65-.57-2.58.52-5.24.48-7.88s-1.23-5.23-2.49-7.61c-6.46-12.23-15.51-23.38-27.37-30.5a50.13,50.13,0,0,0-25.71-7.44A38.23,38.23,0,0,0,315,104.48c-4,3.51-8.18,7.14-6.31,12.11"/><path class="cls-9" d="M389.39,168.08c.34-.84,15.9-6,15.63,10.41-.25,15.91-16.21,12.32-16.23,11.86S389.39,168.08,389.39,168.08Z"/><path class="cls-10" d="M393.82,184.42c.07,0,.27.2.73.43a2.86,2.86,0,0,0,2.08.08c1.69-.59,3.15-3.23,3.29-6.09a9.27,9.27,0,0,0-.7-4,3.21,3.21,0,0,0-2.05-2.17,1.41,1.41,0,0,0-1.65.73c-.22.44-.12.76-.21.78s-.34-.27-.19-.92a1.74,1.74,0,0,1,.64-1,2.08,2.08,0,0,1,1.54-.37,3.86,3.86,0,0,1,2.85,2.52,9.43,9.43,0,0,1,.87,4.45c-.16,3.2-1.86,6.17-4.17,6.79a3,3,0,0,1-2.53-.47C393.84,184.81,393.76,184.45,393.82,184.42Z"/><path class="cls-7" d="M396,160.08a5.58,5.58,0,0,1-.94-.56c-.6-.4-1.52-.94-2.62-1.77a55,55,0,0,1-8.36-8.06,153.81,153.81,0,0,1-10.11-13.93c-3.6-5.37-7.55-11.31-12.65-16.72a50.41,50.41,0,0,0-8.28-6.93,40.69,40.69,0,0,0-9-4.41,45.06,45.06,0,0,0-16.78-2.55A43.22,43.22,0,0,0,315.83,107c-1.32.36-2.3.77-3,1a4.94,4.94,0,0,1-1.05.34,7.63,7.63,0,0,1,1-.47,26.3,26.3,0,0,1,2.94-1.14,41.43,41.43,0,0,1,11.41-2.14,45.08,45.08,0,0,1,17,2.43,41.79,41.79,0,0,1,9.2,4.45,50.21,50.21,0,0,1,8.41,7C367,124,370.91,130,374.48,135.38a163.45,163.45,0,0,0,9.94,14,59.57,59.57,0,0,0,8.14,8.17c1.07.85,2,1.43,2.53,1.87A6,6,0,0,1,396,160.08Z"/><path class="cls-4" d="M395.54,187.29a3.12,3.12,0,1,1-.74.21"/><path class="cls-5" d="M394.8,187.5a4.23,4.23,0,0,0-1.5,2.1,2.72,2.72,0,0,0,.55,2.51,2.79,2.79,0,0,0,4.94-1.42,2.7,2.7,0,0,0-.87-2.42,4.19,4.19,0,0,0-2.38-1s.25-.16.75-.16a3.28,3.28,0,0,1,2,.75,3.22,3.22,0,0,1,1.19,2.91,3.42,3.42,0,0,1-6.11,1.75,3.17,3.17,0,0,1-.53-3.09,3.21,3.21,0,0,1,1.27-1.68C394.5,187.5,394.78,187.46,394.8,187.5Z"/><path class="cls-5" d="M391.83,164.47c.12,4.35.19,8.94-1.93,12.74s-7.25,6.29-11,4c-3-1.85-3.84-5.82-4.26-9.34-1.22-10.17-1.62-20.43-2.93-30.59Z"/><path class="cls-7" d="M312.81,109.14c0,.09,1.42-.23,4-.23a27.06,27.06,0,0,1,10.46,2.22,34.07,34.07,0,0,1,6.5,3.58,71.54,71.54,0,0,1,6.65,5.39,82,82,0,0,1,12.91,14.73c1.94,2.9,3.64,5.86,5.5,8.62A41,41,0,0,0,365,150.8a70.7,70.7,0,0,0,13.18,9.37c4,2.27,7.37,3.87,9.68,5l2.69,1.24a4.43,4.43,0,0,0,1,.37,4.27,4.27,0,0,0-.88-.54L388,164.84c-2.27-1.2-5.58-2.89-9.52-5.22a73.72,73.72,0,0,1-12.94-9.42,40.33,40.33,0,0,1-6-7.24c-1.83-2.73-3.53-5.7-5.49-8.62a79.87,79.87,0,0,0-13.1-14.85,68.55,68.55,0,0,0-6.78-5.39,35.14,35.14,0,0,0-6.68-3.56,26.25,26.25,0,0,0-10.71-2,19.45,19.45,0,0,0-2.95.32A4.59,4.59,0,0,0,312.81,109.14Z"/><path class="cls-10" d="M345.25,198a17.78,17.78,0,0,0-1.13-4.44,1.73,1.73,0,0,0-2.65-1.31c-3.34,1.09-7.63,3.06-11,4.15a8.23,8.23,0,0,0,1.64,6.62c1.09,1.39,3.91,2,5.67,1.93a7.65,7.65,0,0,0,6.26-2.63A6,6,0,0,0,345.25,198Z"/><path class="cls-5" d="M333.56,203.44c.09-.22,1.77,1.26,4.9,1a6.9,6.9,0,0,0,4.59-2.32,7.23,7.23,0,0,0,1.44-6,5.78,5.78,0,0,0-1.44-2.83c-.66-.67-1.52-.5-2.52-.11l-5.25,2.14c-3,1.19-4.9,1.85-5,1.7s1.69-1.11,4.62-2.51l5.19-2.42a5.27,5.27,0,0,1,1.78-.46,2.8,2.8,0,0,1,2,.74,6.74,6.74,0,0,1,1.84,3.49,8.18,8.18,0,0,1-1.79,7,7.53,7.53,0,0,1-5.41,2.45,7.35,7.35,0,0,1-3.87-.92C333.84,203.91,333.51,203.5,333.56,203.44Z"/><path class="cls-10" d="M360.41,179.17c-.06.08-.93-.63-2.54-1.39a15.75,15.75,0,0,0-2.93-1,17.62,17.62,0,0,0-3.77-.45,18.3,18.3,0,0,0-3.77.44,15.24,15.24,0,0,0-2.93,1c-1.61.75-2.48,1.46-2.54,1.38s.18-.22.57-.54a5.23,5.23,0,0,1,.75-.55,8.84,8.84,0,0,1,1.05-.62,14,14,0,0,1,3-1.16,16.73,16.73,0,0,1,3.89-.5,16.2,16.2,0,0,1,3.89.51,13.73,13.73,0,0,1,3,1.16,10.62,10.62,0,0,1,1.06.63,5.07,5.07,0,0,1,.74.55C360.23,179,360.43,179.14,360.41,179.17Z"/><path class="cls-6" d="M271.27,469.55l155.91-.19-1.62-30.26,2.91-108.8-3.18-70.87c-13-5.35-37.78-13.59-37.78-13.59s-9.19,22.08-33.2,22.08c-22.34,0-30.64-19.56-30.64-19.56l-11.06,4.37a194.74,194.74,0,0,0-41.34,11.6L276.8,340s11.6,63.65,9.61,74.92S271.27,469.55,271.27,469.55Z"/><g class="cls-8"><path d="M339.18,360.13c-1.31,8.62-2.24,18.54,3.64,25,3.39,3.71,8.38,5.4,12.8,7.79,9.08,4.9,16,13,22.29,21.15s12.2,16.81,20.06,23.5,18.14,11.35,28.36,9.9L424.2,427.1l-52.9-53.85Z"/></g><path class="cls-6" d="M273.27,263.6s-12.43,4.27-23.52,27.06c-6.85,14.09-31.68,100-32.6,110.76-.06.68,0,1.45-.08,2.29-3.25,30,25.49,50.72,49.84,34.56a38.67,38.67,0,0,0,15.26-20.42l9.41-29.08Z"/><path class="cls-5" d="M345.35,404.05c-.07.12-10.71-6.35-23.75-14.45s-23.55-14.78-23.47-14.9,10.7,6.35,23.75,14.46S345.43,403.93,345.35,404.05Z"/><path class="cls-6" d="M425.29,259.43s29.67,5.67,36,26.06C467,303.54,480,384.23,481.78,401c2.41,23-2.62,48.66-27.16,51.25S384,412.43,384,412.43l30.25-39.18,12.07,6.49-2.21-55.95Z"/><path class="cls-5" d="M435,448.1l-.29-.1-.84-.33c-.73-.32-1.86-.69-3.23-1.38a110.75,110.75,0,0,1-11.37-6.45,334.75,334.75,0,0,1-35.47-27.22l-.17-.15.14-.19c3.71-4.81,7.65-9.91,11.69-15.16l18.56-24,.13-.16.17.09c6.71,3.42,12.77,6.88,18.15,10s10.09,5.91,14,8.24,6.95,4.21,9,5.5l2.38,1.5.61.39a.81.81,0,0,1,.2.15l-.22-.12-.63-.36-2.42-1.42-9.11-5.39c-3.9-2.29-8.62-5.06-14-8.14s-11.46-6.51-18.16-9.91l.3-.07-18.54,24.05-11.7,15.15,0-.35a348.77,348.77,0,0,0,35.31,27.32,116,116,0,0,0,11.27,6.57c1.35.71,2.46,1.11,3.18,1.45l.83.38A1.16,1.16,0,0,1,435,448.1Z"/><path class="cls-5" d="M278.23,330.76a3.28,3.28,0,0,1-.66,0l-1.88-.21-7.08-.85L244,326.53l.26-.18c-1.7,5.88-3.52,12.34-5.38,19.12-4,14.49-7.3,27.67-9.49,37.26-1.1,4.8-1.92,8.69-2.47,11.39-.26,1.32-.47,2.36-.62,3.11-.07.33-.13.59-.17.8a2,2,0,0,1-.08.28,1.26,1.26,0,0,1,0-.29l.13-.81c.12-.75.3-1.8.52-3.13.49-2.71,1.26-6.62,2.31-11.43,2.1-9.62,5.38-22.82,9.35-37.32,1.86-6.78,3.69-13.24,5.41-19.11l.06-.2.21,0,24.63,3.31,7.06,1,1.88.29Z"/><path class="cls-5" d="M284,317.83c.14,0,1,20.52,1.88,45.84s1.51,45.86,1.36,45.87-1-20.52-1.88-45.85S283.9,317.83,284,317.83Z"/><path class="cls-5" d="M424.22,327.08a2.46,2.46,0,0,1,0,.54c0,.4,0,.91,0,1.53,0,1.33,0,3.26.06,5.64.1,4.77.36,11.35.71,18.62s.72,13.78,1,18.61c.12,2.33.22,4.24.29,5.64,0,.62,0,1.13.06,1.54a2.34,2.34,0,0,1,0,.54,2,2,0,0,1-.09-.53l-.15-1.53c-.11-1.41-.27-3.31-.45-5.64-.35-4.75-.78-11.33-1.13-18.6S424,339.57,424,334.8c0-2.39,0-4.32.09-5.65,0-.62.07-1.13.1-1.54A2,2,0,0,1,424.22,327.08Z"/><path class="cls-5" d="M445,281c.12.08-4.83,8-11.05,17.71s-11.36,17.5-11.48,17.42,4.82-8,11-17.7S444.91,281,445,281Z"/><path class="cls-9" d="M292.65,261.44c-3.42.15-3.77-1.71-7.54,3.87s-1.63,12.12-7.93,13.21-10.34-12.39-11-13.66c-.27-.58-1.87-4.1-4-8.72-2.55-5.61-5.84-12.85-8.42-18.44-4.7-10.19-9.45-6.11-9.45-6.11l8.27,29.75s-11.93-22.13-17-27-8.44-.6-8.44-.6l16.15,31.46S230.6,247.49,227,242.41s-6.64-4.91-7.67-3.26-.3,4.9.92,7.46,16.71,26.18,16.13,26.1-13.12-9.6-16.45-11.27-6.11-.27-6.53,2.64,23.91,24.43,23.91,24.43L247.84,316,246,326.73l30.53,3.57.53-15.95s6.84-10.48,9.3-18.06S292.61,269,293.89,267,296.08,261.3,292.65,261.44Z"/><path class="cls-10" d="M276.2,296.23s-.63-.12-1.77-.31a23.23,23.23,0,0,0-4.87-.3,27.29,27.29,0,0,0-3.35.38,9.26,9.26,0,0,1-4,0,8,8,0,0,1-3.64-2.43c-1-1.11-1.92-2.4-2.9-3.63a63.46,63.46,0,0,0-11.46-11.33c-1.65-1.25-3-2.2-4-2.84a15.38,15.38,0,0,1-1.48-1s.15.05.42.19.67.36,1.17.66c1,.59,2.43,1.49,4.11,2.72a59.15,59.15,0,0,1,11.65,11.3c1,1.25,1.86,2.53,2.86,3.6a7.51,7.51,0,0,0,3.4,2.32,8.88,8.88,0,0,0,3.77,0,25.19,25.19,0,0,1,3.4-.32,21.08,21.08,0,0,1,4.92.47c.57.13,1,.25,1.3.34A2,2,0,0,1,276.2,296.23Z"/><path class="cls-5" d="M338.07,307.8l1.34,68.92a6.36,6.36,0,0,0,6.5,6.23l29-.61a6.36,6.36,0,0,0,6.22-6.21l1.67-68.3a6.37,6.37,0,0,0-6.36-6.52H344.43A6.37,6.37,0,0,0,338.07,307.8Z"/><path class="cls-4" d="M363.62,314.51a2.68,2.68,0,1,1-2.67-2.68A2.67,2.67,0,0,1,363.62,314.51Z"/><path class="cls-9" d="M382.12,323.61s8.31,9.84,11.37,14.21,4.16,18.59,4.16,18.59l2,16.4,11.6,6.75L389.49,407l-17.9-16.66L354.36,384s-11.6-10.93-13.57-16a23.5,23.5,0,0,1-1.75-9s-5.47-11.8-6.56-16-1.09-11.59-1.09-11.59,3.06-.88,5.68,4.15l-4.15-8.52s2.18-6.56,7.87-.22,15.09,17.05,15.09,17.05l10.72,8.53,1.31-1.53s-19-23.18-18.59-27.33,4.37-4.38,8.53,0,21.21,26.24,23.4,26.46,2.84-2.84,2.84-2.84l-1.53-8.31-.88-1.75Z"/><path class="cls-10" d="M352.62,358.17a4.6,4.6,0,0,1-.76-.81c-.47-.55-1.13-1.36-1.92-2.37-1.59-2-3.71-4.88-5.93-8.12s-4.09-6.26-5.39-8.48c-.65-1.11-1.16-2-1.5-2.65a5,5,0,0,1-.48-1,4.38,4.38,0,0,1,.65.91c.45.69,1,1.55,1.64,2.56,1.38,2.16,3.31,5.14,5.51,8.38s4.28,6.11,5.79,8.19l1.79,2.46A5,5,0,0,1,352.62,358.17Z"/><path class="cls-10" d="M347.5,369.13a71.65,71.65,0,0,1-5.17-6.73,70.07,70.07,0,0,1-4.75-7,67.87,67.87,0,0,1,5.17,6.73A66.83,66.83,0,0,1,347.5,369.13Z"/></g></svg>