<svg xmlns="http://www.w3.org/2000/svg" viewBox="0 0 108.15 108.13"><defs><style>.cls-1{fill:#6d6e71;}.cls-2{fill:#ab1f2c;}</style></defs><g id="Layer_2" data-name="Layer 2"><g id="Layer_1-2" data-name="Layer 1"><path class="cls-1" d="M103,41.63,91.22,29.85,66.5,5.14a17.61,17.61,0,0,0-24.86,0L5.15,41.63a17.58,17.58,0,0,0,0,24.87L20.69,82l21,20.95a17.6,17.6,0,0,0,24.86,0L87.46,82,103,66.5a17.59,17.59,0,0,0,0-24.87Zm-7.07,17.8L73.31,82,59.43,95.92a7.58,7.58,0,0,1-10.72,0L12.22,59.43a7.58,7.58,0,0,1,0-10.72l9.09-9.09,27.4-27.41a7.58,7.58,0,0,1,10.72,0l36.5,36.5a7.58,7.58,0,0,1,0,10.72Z"/><path class="cls-2" d="M75.13,51.53a4.06,4.06,0,0,0-4-3.33c-3.82,0-5.38-2.7-3.48-6a4,4,0,0,0-1.48-5.47l-3.66-2.09a3.51,3.51,0,0,0-4.8,1.27l-.23.4c-1.91,3.31-5,3.31-6.95,0l-.23-.4a3.47,3.47,0,0,0-4.77-1.27l-3.65,2.09a4,4,0,0,0-1.48,5.49c1.91,3.29.35,6-3.46,6A4,4,0,0,0,33,51.53a3.07,3.07,0,0,0-.06.68v3.72a4,4,0,0,0,4,4c3.81,0,5.37,2.7,3.46,6a4,4,0,0,0,1.48,5.47l3.65,2.09a3.52,3.52,0,0,0,4.81-1.27l.23-.4c1.91-3.31,5-3.31,6.94,0l.24.4a3.52,3.52,0,0,0,4.81,1.27l3.66-2.09A4,4,0,0,0,67.72,66c-1.93-3.31-.37-6,3.46-6a4,4,0,0,0,4-4V52.21A5.05,5.05,0,0,0,75.13,51.53Zm-21.06,9.4a6.85,6.85,0,1,1,6.06-3.64A6.86,6.86,0,0,1,54.07,60.93Z"/><path class="cls-1" d="M60.13,57.29a6.86,6.86,0,1,0-12.12,0,38.27,38.27,0,0,1-15-5.75A4,4,0,0,1,37,48.2c3.81,0,5.37-2.7,3.46-6a4,4,0,0,1,1.48-5.49l3.65-2.09a3.47,3.47,0,0,1,4.77,1.27l.23.4c1.91,3.31,5,3.31,6.95,0l.23-.4a3.51,3.51,0,0,1,4.8-1.27l3.66,2.09a4,4,0,0,1,1.48,5.47c-1.9,3.31-.34,6,3.48,6a4.06,4.06,0,0,1,4,3.33A38.39,38.39,0,0,1,60.13,57.29Z"/><path class="cls-1" d="M91.22,29.85a38.49,38.49,0,0,1-4.38,9.78L59.43,12.21a7.58,7.58,0,0,0-10.72,0L21.31,39.62a37.78,37.78,0,0,1-4.37-9.78l24.7-24.7a17.61,17.61,0,0,1,24.86,0Z"/></g></g></svg>