<svg xmlns="http://www.w3.org/2000/svg" viewBox="0 0 108.14 108.13"><defs><style>.cls-1{fill:#6d6e71;}.cls-2{fill:#ab1f2c;}</style></defs><g id="Layer_2" data-name="Layer 2"><g id="Layer_1-2" data-name="Layer 1"><path class="cls-1" d="M103,41.63,91.52,30.16l-25-25a17.61,17.61,0,0,0-24.86,0l-25,25L5.14,41.63a17.62,17.62,0,0,0,0,24.87L20.69,82l21,20.95a17.6,17.6,0,0,0,24.86,0L87.45,82,103,66.5a17.61,17.61,0,0,0,0-24.87Zm-7.07,17.8L73.31,82,59.43,95.92a7.59,7.59,0,0,1-10.73,0L12.21,59.43a7.6,7.6,0,0,1,0-10.72l9.84-9.84L48.7,12.21a7.59,7.59,0,0,1,10.73,0l36.5,36.5a7.6,7.6,0,0,1,0,10.72Z"/><path class="cls-2" d="M74.19,48.88l-.42.23-.42.23c-.86.45-1.73.88-2.64,1.27-.13.07-.28.13-.42.19l-.42.18.12.78H67.82c-.47.17-.94.33-1.43.47s-1,.32-1.57.46a41.4,41.4,0,0,1-21.5,0c-.53-.14-1.06-.29-1.58-.46s-1-.3-1.42-.47H38.08c.05-.27.09-.53.15-.8l-.43-.18-.43-.19c-.87-.39-1.73-.8-2.56-1.25-.16-.07-.29-.15-.44-.23L34,48.89a20.79,20.79,0,0,0,20.12,26,20.77,20.77,0,0,0,20.12-26ZM46.87,68.51A16.11,16.11,0,0,1,43,65.79a12.73,12.73,0,0,1,2.22-1.26A21.43,21.43,0,0,0,46.87,68.51ZM38.08,56.38h5.77A32.81,32.81,0,0,0,44.18,60a16.1,16.1,0,0,0-4,2.21A16.4,16.4,0,0,1,38.08,56.38ZM54.08,70c-1-.68-3.07-2.5-4.44-6.65A28.73,28.73,0,0,1,54.07,63a31.45,31.45,0,0,1,4.45.28C57.2,67.35,55.27,69.18,54.08,70Zm5.4-11.14a30.53,30.53,0,0,0-5.41-.43h-.46a33.19,33.19,0,0,0-4.92.41c-.11-.81-.18-1.63-.23-2.44H59.68C59.63,57.27,59.56,58.09,59.48,58.82Zm.65,10.71h-.08l.1,0S60.14,69.52,60.13,69.53Zm1.16-1a22.25,22.25,0,0,0,1.65-3.94,11.5,11.5,0,0,1,2.23,1.26A16.1,16.1,0,0,1,61.29,68.49ZM68,62.18A16.16,16.16,0,0,0,64,60a33.27,33.27,0,0,0,.34-3.59h5.76A16.21,16.21,0,0,1,68,62.18Z"/><path class="cls-1" d="M54.07,33.3A20.81,20.81,0,0,0,34,48.88h0l.42.22c.15.08.28.16.44.23.83.45,1.69.86,2.56,1.25l.43.19.43.18a15.89,15.89,0,0,1,2.13-5.41,17,17,0,0,0,3.91,2.07,34,34,0,0,0-.42,4.14H40.32c.47.17.94.33,1.42.47s1,.32,1.58.46a41.4,41.4,0,0,0,21.5,0c.53-.14,1.06-.29,1.57-.46s1-.3,1.43-.47H64.3a36.23,36.23,0,0,0-.42-4.15,16.79,16.79,0,0,0,3.89-2.06A16.44,16.44,0,0,1,69.87,51l.42-.18c.14-.06.29-.12.42-.19.91-.39,1.78-.82,2.64-1.27l.42-.23.42-.23A20.81,20.81,0,0,0,54.07,33.3Zm0,4.89c1.12.75,2.93,2.46,4.23,6.09a32.87,32.87,0,0,1-4.22.28h0a30.5,30.5,0,0,1-4.24-.28C51.13,40.61,53,38.92,54.07,38.19Zm-8.74,4.89a11.33,11.33,0,0,1-2-1.06,15.91,15.91,0,0,1,3.49-2.37A21.53,21.53,0,0,0,45.33,43.08Zm3.12,8.68c.06-1,.16-2.06.29-3a31.87,31.87,0,0,0,10.63,0c.14,1,.27,2,.32,3ZM62.8,43.08a20.83,20.83,0,0,0-1.53-3.45A16.68,16.68,0,0,1,64.79,42,11.88,11.88,0,0,1,62.8,43.08Z"/></g></g></svg>