<svg xmlns="http://www.w3.org/2000/svg" viewBox="0 0 108.15 108.13"><defs><style>.cls-1{fill:#ab1f2c;}.cls-2{fill:#6d6e71;}</style></defs><g id="Layer_2" data-name="Layer 2"><g id="Layer_1-2" data-name="Layer 1"><path class="cls-1" d="M75.66,28.45V50.37h-.14a14.93,14.93,0,0,0-12.68-7.16c-10.49,0-17.1,9.1-17.1,19.06,0,10.41,6.22,19.67,17.41,19.67A15,15,0,0,0,75.52,75h.14v4.66l7-7V35.45ZM64.24,75.72c-7.39,0-11.52-6.38-11.52-13.22S57,49.43,64.24,49.43c7.54,0,11.82,6,11.82,13.07S71.85,75.72,64.24,75.72Z"/><path class="cls-2" d="M103,41.63,82.66,21.31V35.45L95.93,48.71a7.58,7.58,0,0,1,0,10.72L82.66,72.68,59.43,95.92a7.58,7.58,0,0,1-10.72,0L37.88,85.09V50.83h6.84V44.3H37.88V23L48.71,12.21a7.58,7.58,0,0,1,10.72,0L75.66,28.45V14.31L66.5,5.14a17.61,17.61,0,0,0-24.86,0L5.15,41.63a17.58,17.58,0,0,0,0,24.87L41.64,103a17.6,17.6,0,0,0,24.86,0L87.46,82,103,66.5a17.59,17.59,0,0,0,0-24.87ZM30.88,44.3H27.07v6.53h3.81V78.09L12.22,59.43a7.58,7.58,0,0,1,0-10.72L30.88,30Z"/></g></g></svg>