<svg xmlns="http://www.w3.org/2000/svg" viewBox="0 0 108.14 108.13"><defs><style>.cls-1{fill:#ab1f2c;fill-rule:evenodd;}.cls-2{fill:#6d6e71;}</style></defs><g id="Layer_2" data-name="Layer 2"><g id="Layer_1-2" data-name="Layer 1"><path class="cls-1" d="M72.46,62.24V67a5.21,5.21,0,0,1-4.41,5.25,29,29,0,0,1-3.87.26,28.49,28.49,0,0,1-28-23.19,26.86,26.86,0,0,1-.51-5.34,27.51,27.51,0,0,1,.26-3.86,5.21,5.21,0,0,1,5.24-4.42h4.72a5.53,5.53,0,0,1,5.24,3.78l1.93,5.79A4.51,4.51,0,0,1,49.88,51a.83.83,0,0,0-.39,1.38l.56.55,5.66,5.68a.84.84,0,0,0,1.4-.39,4.5,4.5,0,0,1,5.79-3.18L68.69,57A5.52,5.52,0,0,1,72.46,62.24Z"/><path class="cls-2" d="M53.06,45.23A4.51,4.51,0,0,1,49.88,51a.83.83,0,0,0-.39,1.38l.56.55a40.71,40.71,0,0,1-13.87-3.68,26.86,26.86,0,0,1-.51-5.34,27.51,27.51,0,0,1,.26-3.86,5.21,5.21,0,0,1,5.24-4.42h4.72a5.53,5.53,0,0,1,5.24,3.78Z"/><path class="cls-2" d="M103,41.63,90.85,29.48,66.49,5.14a17.61,17.61,0,0,0-24.86,0L5.14,41.63a17.62,17.62,0,0,0,0,24.87L41.63,103a17.6,17.6,0,0,0,24.86,0L87.45,82,103,66.5a17.59,17.59,0,0,0,0-24.87Zm-7.06,17.8L73.3,82,59.43,95.92a7.59,7.59,0,0,1-10.73,0L12.21,59.43a7.58,7.58,0,0,1,0-10.72l10-10L48.7,12.21a7.59,7.59,0,0,1,10.73,0l36.5,36.5a7.6,7.6,0,0,1,0,10.72Z"/></g></g></svg>